<svg width="60" height="60" viewBox="0 0 60 60" fill="none" xmlns="http://www.w3.org/2000/svg">
<path d="M30 60C46.542 60 60 46.542 60 30C60 13.458 46.542 0 30 0C13.458 0 0 13.458 0 30C0 46.542 13.458 60 30 60ZM14.437 29.174L36.437 14.174C36.606 14.059 36.803 14 37 14C37.16 14 37.321 14.038 37.467 14.116C37.795 14.289 38 14.629 38 15L38 45C38 45.371 37.795 45.711 37.467 45.884C37.139 46.058 36.743 46.034 36.436 45.826L14.436 30.826C14.164 30.64 14 30.331 14 30C14 29.669 14.164 29.36 14.437 29.174Z" fill="white"/>
</svg>
