<svg width="23" height="25" viewBox="0 0 23 25" fill="none" xmlns="http://www.w3.org/2000/svg">
<path d="M18.5086 4.61659C18.9998 4.62054 19.4694 4.81917 19.8143 5.16889C20.1592 5.51862 20.3514 5.99088 20.3486 6.48208C20.3486 6.55115 20.376 6.61739 20.4248 6.66622C20.4737 6.71506 20.5399 6.7425 20.609 6.7425C20.678 6.7425 20.7443 6.71506 20.7931 6.66622C20.842 6.61739 20.8694 6.55115 20.8694 6.48208C20.8665 5.99089 21.0587 5.51863 21.4036 5.1689C21.7485 4.81917 22.2181 4.62054 22.7092 4.61659C22.7783 4.61659 22.8445 4.58915 22.8934 4.54031C22.9422 4.49147 22.9697 4.42524 22.9697 4.35617C22.9697 4.2871 22.9422 4.22086 22.8934 4.17203C22.8445 4.12319 22.7783 4.09575 22.7092 4.09575C22.2181 4.09183 21.7485 3.89323 21.4036 3.54352C21.0587 3.19382 20.8665 2.72157 20.8694 2.23039C20.8694 2.16132 20.842 2.09508 20.7931 2.04624C20.7443 1.99741 20.678 1.96997 20.609 1.96997C20.5399 1.96997 20.4737 1.99741 20.4248 2.04624C20.376 2.09508 20.3486 2.16132 20.3486 2.23039C20.3514 2.72158 20.1592 3.19383 19.8143 3.54353C19.4693 3.89323 18.9998 4.09183 18.5086 4.09575C18.4395 4.09575 18.3733 4.12319 18.3244 4.17203C18.2756 4.22086 18.2482 4.2871 18.2482 4.35617C18.2482 4.42524 18.2756 4.49147 18.3244 4.54031C18.3733 4.58915 18.4395 4.61659 18.5086 4.61659Z" fill="white"/>
<path d="M13.8551 2.40304C13.8551 2.33398 13.8276 2.26774 13.7788 2.2189C13.7299 2.17006 13.6637 2.14263 13.5946 2.14263C13.1035 2.1387 12.6339 1.9401 12.289 1.5904C11.9441 1.24069 11.752 0.768441 11.7548 0.277262C11.7548 0.208196 11.7274 0.141958 11.6785 0.09312C11.6297 0.0442824 11.5634 0.0168457 11.4944 0.0168457C11.4253 0.0168457 11.3591 0.0442824 11.3102 0.09312C11.2614 0.141958 11.234 0.208196 11.234 0.277262C11.2368 0.768453 11.0446 1.2407 10.6997 1.5904C10.3547 1.94011 9.88518 2.1387 9.39399 2.14263C9.32493 2.14263 9.25869 2.17006 9.20985 2.2189C9.16101 2.26774 9.13358 2.33398 9.13358 2.40304C9.13358 2.47211 9.16101 2.53835 9.20985 2.58719C9.25869 2.63602 9.32493 2.66346 9.39399 2.66346C9.88519 2.66742 10.3548 2.86604 10.6997 3.21577C11.0446 3.56549 11.2368 4.03775 11.234 4.52895C11.234 4.59802 11.2614 4.66426 11.3102 4.7131C11.3591 4.76193 11.4253 4.78937 11.4944 4.78937C11.5634 4.78937 11.6297 4.76193 11.6785 4.7131C11.7274 4.66426 11.7548 4.59802 11.7548 4.52895C11.752 4.03776 11.9441 3.5655 12.289 3.21577C12.6339 2.86605 13.1035 2.66742 13.5946 2.66346C13.6288 2.66346 13.6627 2.65672 13.6943 2.64364C13.7259 2.63055 13.7546 2.61137 13.7788 2.58719C13.803 2.563 13.8221 2.5343 13.8352 2.5027C13.8483 2.47111 13.8551 2.43724 13.8551 2.40304Z" fill="white"/>
<path d="M1.32109 4.74671C1.81228 4.75067 2.28185 4.9493 2.62679 5.29902C2.97173 5.64874 3.16387 6.121 3.16106 6.61221C3.16106 6.68127 3.1885 6.74751 3.23733 6.79635C3.28617 6.84519 3.35241 6.87262 3.42148 6.87262C3.49054 6.87262 3.55678 6.84519 3.60562 6.79635C3.65446 6.74751 3.68189 6.68127 3.68189 6.61221C3.67905 6.12102 3.87116 5.64875 4.21608 5.29903C4.56099 4.9493 5.03055 4.75067 5.52174 4.74671C5.5908 4.74671 5.65704 4.71928 5.70588 4.67044C5.75472 4.6216 5.78215 4.55536 5.78215 4.4863C5.78215 4.41723 5.75472 4.35099 5.70588 4.30215C5.65704 4.25332 5.5908 4.22588 5.52174 4.22588C5.03056 4.22196 4.56101 4.02336 4.21608 3.67365C3.87116 3.32394 3.67905 2.85169 3.68189 2.36051C3.68189 2.29145 3.65446 2.22521 3.60562 2.17637C3.55678 2.12753 3.49054 2.1001 3.42148 2.1001C3.35241 2.1001 3.28617 2.12753 3.23733 2.17637C3.1885 2.22521 3.16106 2.29145 3.16106 2.36051C3.16387 2.85171 2.97172 3.32395 2.62678 3.67366C2.28184 4.02336 1.81227 4.22196 1.32109 4.22588C1.25202 4.22588 1.18578 4.25332 1.13694 4.30215C1.08811 4.35099 1.06067 4.41723 1.06067 4.4863C1.06067 4.55536 1.08811 4.6216 1.13694 4.67044C1.18578 4.71928 1.25202 4.74671 1.32109 4.74671Z" fill="white"/>
<path d="M22.2461 8.3867C22.112 8.34191 18.9349 7.29151 16.7083 7.29151C15.2984 7.2898 13.8954 7.48907 12.5417 7.88331V22.5745C13.881 22.1075 15.2899 21.8709 16.7083 21.8748V24.9998L17.75 23.9582L18.7917 24.9998V22.1264C19.7359 22.3221 20.6691 22.568 21.5872 22.863C21.7438 22.9152 21.9106 22.9294 22.0737 22.9046C22.2369 22.8797 22.3918 22.8164 22.5257 22.7199C22.6596 22.6234 22.7687 22.4964 22.8439 22.3495C22.9191 22.2026 22.9583 22.0399 22.9583 21.8748V9.37485C22.9583 9.15623 22.8895 8.94316 22.7617 8.76582C22.6339 8.58847 22.4535 8.45583 22.2461 8.3867ZM20.875 18.4781C19.8749 18.1871 18.0289 17.7082 16.7083 17.7082C16.0104 17.7084 15.3137 17.7653 14.625 17.8782V15.7949C15.3137 15.6819 16.0104 15.6251 16.7083 15.6248C18.0289 15.6248 19.8749 16.1038 20.875 16.3948V18.4781ZM20.875 13.5302C19.8749 13.2392 18.0289 12.7603 16.7083 12.7603C16.0104 12.7605 15.3137 12.8174 14.625 12.9303V10.847C15.3137 10.734 16.0104 10.6772 16.7083 10.6769C18.0289 10.6769 19.8749 11.1558 20.875 11.4469V13.5302Z" fill="white"/>
<path d="M0.753896 8.3867C0.546502 8.45583 0.366116 8.58847 0.238288 8.76582C0.110459 8.94316 0.0416676 9.15623 0.0416565 9.37485V21.8748C0.0416649 22.0399 0.0808941 22.2026 0.156111 22.3495C0.231329 22.4964 0.340381 22.6234 0.474281 22.7199C0.608182 22.8164 0.763098 22.8797 0.926262 22.9046C1.08943 22.9294 1.25617 22.9152 1.41275 22.863C1.44244 22.8532 4.39934 21.8748 6.29166 21.8748C7.7101 21.8709 9.11895 22.1075 10.4583 22.5745V7.88331C9.10461 7.48907 7.70161 7.2898 6.29166 7.29151C4.06509 7.29151 0.888011 8.34191 0.753896 8.3867ZM8.37499 17.8782C7.68629 17.7653 6.98956 17.7084 6.29166 17.7082C4.97108 17.7082 3.12512 18.1871 2.12499 18.4781V16.3948C3.12512 16.1038 4.97108 15.6248 6.29166 15.6248C6.98956 15.6251 7.68629 15.6819 8.37499 15.7949V17.8782ZM8.37499 12.9303C7.68629 12.8174 6.98956 12.7605 6.29166 12.7603C4.97108 12.7603 3.12512 13.2392 2.12499 13.5302V11.4469C3.12512 11.1558 4.97108 10.6769 6.29166 10.6769C6.98956 10.6772 7.68629 10.734 8.37499 10.847V12.9303Z" fill="white"/>
</svg>
