<svg width="23" height="25" viewBox="0 0 23 25" fill="none" xmlns="http://www.w3.org/2000/svg">
<path d="M20.9167 4.16663H14.8367C14.8667 4.17027 14.8969 4.17214 14.9271 4.17222C15.2724 4.17222 15.6036 4.30941 15.8478 4.5536C16.092 4.79778 16.2292 5.12897 16.2292 5.47431C16.2292 5.81964 16.092 6.15083 15.8478 6.39502C15.6036 6.63921 15.2724 6.77639 14.9271 6.77639C14.7121 6.78006 14.5073 6.86884 14.3576 7.02328C14.208 7.17771 14.1257 7.38519 14.1288 7.60022C14.1288 7.94555 13.9916 8.27674 13.7474 8.52093C13.5032 8.76512 13.172 8.9023 12.8267 8.9023C12.4814 8.9023 12.1502 8.76512 11.906 8.52093C11.6618 8.27674 11.5246 7.94555 11.5246 7.60022C11.5277 7.38522 11.4454 7.17776 11.2958 7.02332C11.1462 6.86889 10.9414 6.78009 10.7264 6.77639C10.3811 6.77639 10.0499 6.63921 9.80572 6.39502C9.56153 6.15083 9.42434 5.81964 9.42434 5.47431C9.42434 5.12897 9.56153 4.79778 9.80572 4.5536C10.0499 4.30941 10.3811 4.17222 10.7264 4.17222C10.7566 4.17214 10.7868 4.17027 10.8168 4.16663H8.41666C7.86433 4.16728 7.33481 4.38698 6.94425 4.77754C6.55369 5.1681 6.33398 5.69763 6.33333 6.24996V22.9166C6.33398 23.469 6.55369 23.9985 6.94425 24.389C7.33481 24.7796 7.86433 24.9993 8.41666 25H20.9167C21.469 24.9993 21.9985 24.7796 22.3891 24.389C22.7796 23.9985 22.9993 23.469 23 22.9166V6.24996C22.9993 5.69763 22.7796 5.1681 22.3891 4.77754C21.9985 4.38698 21.469 4.16728 20.9167 4.16663ZM18.2575 15.7928C17.4337 17.4403 15.0579 19.0494 14.9572 19.1171C14.8713 19.1749 14.7701 19.2057 14.6667 19.2057C14.5632 19.2057 14.4621 19.1749 14.3762 19.1171C14.2754 19.0494 11.8996 17.4403 11.0758 15.7928C10.4658 14.5727 10.7242 13.1816 11.6914 12.4847C12.3832 11.9863 13.4977 11.8364 14.6667 12.7765C15.8358 11.8364 16.95 11.9862 17.6419 12.4847C18.6086 13.1816 18.8676 14.5727 18.2575 15.7928Z" fill="white"/>
<path d="M10.466 5.47434C10.466 5.5434 10.4935 5.60964 10.5423 5.65848C10.5911 5.70732 10.6574 5.73475 10.7264 5.73475C11.2176 5.73871 11.6872 5.93734 12.0321 6.28706C12.3771 6.63678 12.5692 7.10905 12.5664 7.60025C12.5664 7.66932 12.5938 7.73556 12.6427 7.78439C12.6915 7.83323 12.7578 7.86067 12.8268 7.86067C12.8959 7.86067 12.9621 7.83323 13.011 7.78439C13.0598 7.73556 13.0872 7.66932 13.0872 7.60025C13.0844 7.10906 13.2765 6.6368 13.6214 6.28707C13.9664 5.93734 14.4359 5.73871 14.9271 5.73475C14.9962 5.73475 15.0624 5.70732 15.1112 5.65848C15.1601 5.60964 15.1875 5.5434 15.1875 5.47434C15.1875 5.40527 15.1601 5.33903 15.1112 5.29019C15.0624 5.24136 14.9962 5.21392 14.9271 5.21392C14.4359 5.21 13.9664 5.0114 13.6214 4.66169C13.2765 4.31198 13.0844 3.83973 13.0872 3.34855C13.0872 3.27948 13.0598 3.21325 13.011 3.16441C12.9621 3.11557 12.8959 3.08813 12.8268 3.08813C12.7578 3.08813 12.6915 3.11557 12.6427 3.16441C12.5938 3.21325 12.5664 3.27948 12.5664 3.34855C12.5692 3.83974 12.3771 4.31199 12.0321 4.6617C11.6872 5.0114 11.2176 5.21 10.7264 5.21392C10.6574 5.21392 10.5911 5.24136 10.5423 5.29019C10.4935 5.33903 10.466 5.40527 10.466 5.47434Z" fill="white"/>
<path d="M5.29166 10.1619C4.80049 10.158 4.33093 9.9594 3.98601 9.60969C3.64109 9.25998 3.44898 8.78773 3.45182 8.29655C3.45182 8.22748 3.42438 8.16125 3.37554 8.11241C3.32671 8.06357 3.26047 8.03613 3.1914 8.03613C3.12234 8.03613 3.0561 8.06357 3.00726 8.11241C2.95842 8.16125 2.93099 8.22748 2.93099 8.29655C2.93379 8.78774 2.74165 9.25999 2.39671 9.6097C2.05177 9.9594 1.5822 10.158 1.09101 10.1619C1.02195 10.1619 0.955709 10.1894 0.906871 10.2382C0.858034 10.287 0.830597 10.3533 0.830597 10.4223C0.830597 10.4914 0.858034 10.5576 0.906871 10.6065C0.955709 10.6553 1.02195 10.6828 1.09101 10.6828C1.58221 10.6867 2.05178 10.8853 2.39672 11.2351C2.74166 11.5848 2.93379 12.0571 2.93099 12.5483C2.93099 12.6173 2.95842 12.6836 3.00726 12.7324C3.0561 12.7812 3.12234 12.8087 3.1914 12.8087C3.26047 12.8087 3.32671 12.7812 3.37554 12.7324C3.42438 12.6836 3.45182 12.6173 3.45182 12.5483C3.44898 12.0571 3.64109 11.5848 3.986 11.2351C4.33092 10.8853 4.80048 10.6867 5.29166 10.6828C5.36073 10.6828 5.42697 10.6553 5.4758 10.6065C5.52464 10.5576 5.55208 10.4914 5.55208 10.4223C5.55208 10.3533 5.52464 10.287 5.4758 10.2382C5.42697 10.1894 5.36073 10.1619 5.29166 10.1619Z" fill="white"/>
<path d="M5.29166 2.21917C4.80049 2.21524 4.33093 2.01664 3.98601 1.66693C3.64109 1.31723 3.44898 0.84498 3.45182 0.3538C3.45182 0.284734 3.42438 0.218496 3.37554 0.169658C3.32671 0.12082 3.26047 0.0933838 3.1914 0.0933838C3.12234 0.0933838 3.0561 0.12082 3.00726 0.169658C2.95842 0.218496 2.93099 0.284734 2.93099 0.3538C2.93379 0.844992 2.74165 1.31724 2.39671 1.66694C2.05177 2.01665 1.5822 2.21524 1.09101 2.21917C1.02195 2.21917 0.955709 2.2466 0.906871 2.29544C0.858034 2.34428 0.830597 2.41052 0.830597 2.47958C0.830597 2.54865 0.858034 2.61489 0.906871 2.66372C0.955709 2.71256 1.02195 2.74 1.09101 2.74C1.58221 2.74396 2.05178 2.94258 2.39672 3.2923C2.74166 3.64203 2.93379 4.11429 2.93099 4.60549C2.93099 4.67456 2.95842 4.7408 3.00726 4.78964C3.0561 4.83847 3.12234 4.86591 3.1914 4.86591C3.26047 4.86591 3.32671 4.83847 3.37554 4.78964C3.42438 4.7408 3.45182 4.67456 3.45182 4.60549C3.44898 4.1143 3.64109 3.64204 3.986 3.29231C4.33092 2.94259 4.80048 2.74396 5.29166 2.74C5.36073 2.74 5.42697 2.71256 5.4758 2.66372C5.52464 2.61489 5.55208 2.54865 5.55208 2.47958C5.55208 2.41052 5.52464 2.34428 5.4758 2.29544C5.42697 2.2466 5.36073 2.21917 5.29166 2.21917Z" fill="white"/>
</svg>
