<svg width="25" height="25" viewBox="0 0 25 25" fill="none" xmlns="http://www.w3.org/2000/svg">
<path d="M20.434 16.6331V24.1256V24.1504H25V19.2723L20.434 16.6331Z" fill="white"/>
<path d="M0 24.1505H4.56605V24.1256V16.6273L0 19.2724V24.1505Z" fill="white"/>
<path d="M5.3725 14.0773V24.1255H10.0537V19.8654C10.0537 18.5293 11.1369 17.4461 12.4731 17.4461H12.5269C13.8631 17.4461 14.9463 18.5293 14.9463 19.8654V24.1255H19.6275V14.0773L12.5 8.16504L5.3725 14.0773Z" fill="white"/>
<path d="M2.21791 13.0312L3.42727 14.4988L12.5 7.02283L21.5727 14.4988L22.7821 13.0312L13.0645 5.02396V3.24211H14.809V2.11308H13.0645V0.849609H11.9355V2.11308H10.1911V3.24211H11.9355V5.02396L2.21791 13.0312Z" fill="white"/>
</svg>
