<svg width="25" height="24" viewBox="0 0 25 24" fill="none" xmlns="http://www.w3.org/2000/svg">
<path d="M22.0721 19.664L20.672 17.375H4.32798L2.92793 19.664H22.0721Z" fill="white"/>
<path d="M5.17123 11.7632L4.55361 11.8573V15.9688H20.4464V11.8573L19.8288 11.7632C19.3376 11.6884 18.9812 11.2867 18.9812 10.8082C18.9812 10.3296 19.3377 9.92789 19.8288 9.85308L20.4464 9.759V7.62858C20.4464 3.42216 16.8816 0 12.5 0C8.1183 0 4.55356 3.42216 4.55356 7.62853V9.75895L5.17119 9.85303C5.66235 9.92784 6.01879 10.3296 6.01879 10.8081C6.01879 11.2867 5.66235 11.6884 5.17123 11.7632ZM9.5601 6.46744H11.7676V4.5H13.2324V6.46744H15.4399V7.87369H13.2324V12.5156H11.7676V7.87369H9.5601V6.46744Z" fill="white"/>
<path d="M0 21.0703H25V24H0V21.0703Z" fill="white"/>
</svg>
