<svg width="31" height="41" viewBox="0 0 31 41" fill="none" xmlns="http://www.w3.org/2000/svg">
<path d="M19.5696 7.2645C18.4164 7.25705 17.564 7.85808 17.0781 8.73285C17.0395 8.76538 17.0015 8.7891 16.9629 8.82636C15.5034 10.2663 13.928 11.4792 12.1357 12.4115C12.0815 11.9331 12.0266 11.4554 11.9731 10.9771C11.7976 9.39893 10.8056 8.05255 9.07909 8.04103C7.6331 8.03154 5.96757 9.35421 6.14307 10.935C6.47983 13.9537 6.82676 16.9731 7.28346 19.9762L2.06529 30.1876L8.57293 30.2946C8.57293 33.2381 8.57293 36.1809 8.57293 39.1224C8.57293 41.6261 12.4576 41.6261 12.4576 39.1224C12.4576 36.2006 12.4576 33.2808 12.4576 30.3583L13.6563 30.3787L13.6285 20.5671C14.1929 20.7365 14.7831 20.8449 15.395 20.8889C15.5366 21.5631 15.9059 22.1228 16.3924 22.5389C16.3605 22.6832 16.3416 22.8343 16.3416 22.9996C16.3416 28.3079 16.3416 33.6189 16.3416 38.9293C16.3416 41.4323 20.2262 41.4323 20.2262 38.9293C20.2262 33.6189 20.2262 28.3079 20.2262 22.9996C20.2262 22.921 20.212 22.8499 20.2039 22.776C20.5915 22.4305 20.8801 21.9277 20.9987 21.2433C21.6282 17.5809 22.0517 13.8914 22.463 10.1999C22.6385 8.6197 21.0332 7.27534 19.5696 7.2645ZM15.6802 17.7835C14.5365 17.7008 13.5173 17.3261 12.65 16.6079C12.608 16.2975 12.5633 15.9879 12.524 15.6769C13.8487 15.088 15.088 14.3589 16.2474 13.514C16.078 14.9396 15.8937 16.3633 15.6802 17.7835Z" fill="white"/>
<path d="M9.44771 7.64397C11.2511 7.64397 12.713 6.18203 12.713 4.37863C12.713 2.57524 11.2511 1.1133 9.44771 1.1133C7.64431 1.1133 6.18237 2.57524 6.18237 4.37863C6.18237 6.18203 7.64431 7.64397 9.44771 7.64397Z" fill="white"/>
<path d="M17.6846 6.52932C19.4876 6.52932 20.9492 5.06768 20.9492 3.26466C20.9492 1.46164 19.4876 0 17.6846 0C15.8815 0 14.4199 1.46164 14.4199 3.26466C14.4199 5.06768 15.8815 6.52932 17.6846 6.52932Z" fill="white"/>
<path d="M30.813 3.17725C30.8171 3.17725 30.8238 3.17725 30.8272 3.17792C30.7161 2.16695 29.8901 1.62216 29.1102 1.62216C29.0357 1.62216 28.9618 1.6269 28.89 1.63639C28.4028 1.69195 27.9562 1.94538 27.608 2.36413C27.2109 1.88642 26.6878 1.62284 26.122 1.62284C26.122 1.62284 26.1132 1.62284 26.1105 1.62284H26.1051C25.3265 1.62284 24.4998 2.16763 24.3887 3.17792C24.3941 3.17792 24.3982 3.17792 24.4029 3.17725C24.3928 3.2572 24.3887 3.33851 24.3887 3.42457C24.3887 4.62798 25.4552 5.46888 26.2365 6.08142C26.3761 6.19255 26.4974 6.28741 26.6072 6.37143C26.6072 6.37211 26.6058 6.37415 26.6058 6.37415L26.6139 6.38092C27.1011 6.74818 27.2793 6.88505 27.4792 7.08359C27.5111 7.11611 27.5551 7.13373 27.6012 7.13373C27.6053 7.13373 27.6093 7.13305 27.6127 7.1317C27.6147 7.13305 27.6161 7.13305 27.6161 7.13305C27.6628 7.13305 27.7089 7.11476 27.7408 7.08223C27.8837 6.93994 28.0186 6.82814 28.2632 6.64044C28.2761 6.63163 28.2835 6.62418 28.295 6.61537C28.3479 6.57539 28.4048 6.53203 28.4624 6.4873C28.5085 6.4541 28.5539 6.41887 28.6054 6.38024L28.6149 6.37279V6.37211C28.7219 6.28809 28.8453 6.19458 28.9855 6.08346C29.7627 5.47023 30.8326 4.62933 30.8326 3.42592C30.8286 3.33851 30.8218 3.2572 30.813 3.17725Z" fill="white"/>
<path d="M2.14321 12.0904C2.16964 12.0693 2.1981 12.0477 2.22791 12.0253C2.25095 12.0077 2.27467 11.9907 2.30109 11.9704L2.3038 11.967V11.9664C2.35937 11.9243 2.42171 11.8762 2.4915 11.8207C2.88721 11.5103 3.42794 11.0848 3.42794 10.4743C3.42794 10.4302 3.42523 10.3896 3.4198 10.3476C3.4198 10.3476 3.42523 10.3476 3.42794 10.3489C3.3717 9.83667 2.95362 9.56021 2.55722 9.56021C2.52063 9.56021 2.48337 9.56292 2.4461 9.56834C2.20013 9.5968 1.97314 9.72419 1.79696 9.9356C1.59639 9.69438 1.33078 9.56021 1.04415 9.56021L1.03805 9.56089C0.641661 9.56089 0.222906 9.83667 0.167343 10.3489H0.174797C0.170054 10.3896 0.167343 10.4302 0.167343 10.4736C0.167343 11.0841 0.707387 11.5097 1.10243 11.82C1.17357 11.8762 1.23456 11.9237 1.29012 11.967L1.28944 11.9677L1.29351 11.9711C1.53948 12.1574 1.63095 12.2272 1.73191 12.3275C1.74818 12.3445 1.77121 12.3533 1.79357 12.3533L1.799 12.3526H1.80103C1.82407 12.3526 1.84643 12.3431 1.86269 12.3275C1.93519 12.255 2.00363 12.1988 2.12695 12.1026C2.13237 12.0978 2.13712 12.0944 2.14321 12.0904Z" fill="white"/>
</svg>
