<svg width="139" height="130" viewBox="0 0 139 130" fill="none" xmlns="http://www.w3.org/2000/svg">
<path d="M107.675 12.2956C108.232 12.2338 108.79 12.2338 109.348 12.172L110.216 12.1103C110.464 12.1103 110.774 12.1103 111.022 12.1103H112.696L114.369 12.2338C114.927 12.2338 115.485 12.3574 116.043 12.4192C116.601 12.5428 117.159 12.6046 117.717 12.7281C118.833 12.9753 119.948 13.2224 121.002 13.5931C125.341 14.9525 129.433 17.6093 132.594 21.0694L133.586 22.5523C133.772 22.7994 133.896 23.0466 134.082 23.2937L134.516 24.0969C134.764 24.5912 135.074 25.1473 135.322 25.6416L136.003 27.2481C136.871 29.4106 137.491 31.635 137.863 33.9211C138.669 38.4315 138.545 42.942 137.925 47.3289C137.553 49.4914 137.119 51.654 136.499 53.7547C135.879 55.8555 135.074 57.8945 134.268 59.8717C132.532 63.7643 130.486 67.4715 128.317 70.8698C126.457 73.9591 123.792 77.2338 120.692 80.4468C117.593 83.6597 114.121 86.8108 110.712 89.9002C107.303 92.9895 104.079 95.9553 101.29 98.9829C100.608 99.7243 99.9879 100.466 99.368 101.207C98.6242 102.134 97.8803 103.061 97.1364 103.926C96.2686 105.038 95.4007 106.088 94.5329 107.201C94.3469 107.509 94.099 107.757 93.913 108.066C93.6651 108.375 93.4791 108.745 93.2931 109.054C92.8592 109.734 92.4253 110.413 92.0534 111.031C92.9212 110.166 93.7271 109.363 94.5329 108.56C95.3388 107.88 96.0826 107.262 96.7645 106.583C96.2686 107.139 95.7727 107.757 95.3388 108.313C95.0908 108.622 94.8428 108.869 94.6569 109.178C94.4089 109.548 94.161 109.857 93.913 110.228C92.9212 111.649 91.9914 113.07 91.0615 114.491L89.4498 116.345L87.8381 118.26C86.7843 119.558 85.7305 120.856 84.6767 122.153C82.6311 124.748 80.5234 127.281 78.4778 129.815C78.2918 129.691 78.1679 129.567 77.9819 129.382L77.486 128.826L76.4942 127.714L74.5105 125.49L70.5432 120.979C67.8777 117.952 65.0262 114.924 62.2367 111.835C61.5549 111.093 60.873 110.29 60.1291 109.548L57.9595 107.386C57.5876 107.015 57.2156 106.706 56.8437 106.336L55.7899 105.409L54.6741 104.482C53.2484 103.184 51.6367 102.072 50.0869 100.836C44.012 96.1407 36.2634 91.8156 27.833 85.3897C24.8575 83.1036 22.006 81.9296 19.0305 79.0874L17.9147 78.0371L16.7989 76.9249L15.6831 75.8127L14.6293 74.6388L13.5755 73.403L12.4597 72.0437L11.3439 70.6226L10.3521 69.2015C10.2901 69.2015 10.2901 69.3251 10.2901 69.4487C7.50062 65.4943 5.20703 61.231 3.47135 56.6587C1.73566 52.0865 0.557874 47.0817 0.309918 41.6445C0.0619631 36.2072 0.74384 30.1521 3.09941 24.2205C3.65731 22.7376 4.40118 21.2547 5.14505 19.8336L5.70294 18.7833L6.38482 17.7329C6.81874 17.0532 7.31465 16.3736 7.74857 15.6939C8.1825 15.0142 8.7404 14.3346 9.2983 13.7167C9.85619 13.0988 10.4141 12.4192 10.972 11.8013C11.5299 11.1834 12.1498 10.6274 12.7697 10.0095C13.3896 9.39163 14.0094 8.89733 14.6913 8.40303C19.3405 4.57223 24.9815 2.28611 30.4365 1.05037C33.164 0.494286 35.9535 0.123564 38.681 0.0617765C41.4085 -0.0617976 44.136 0.123564 46.8635 0.494286C48.9091 0.803221 49.839 1.29752 50.5828 1.79181C51.3267 2.3479 51.8846 2.78041 53.1864 3.33649C53.8063 3.64543 54.4261 3.89258 54.984 4.20151C55.5419 4.51045 56.0998 4.81938 56.5958 5.06653C57.6496 5.62261 58.6414 6.30227 59.5712 6.85836C60.501 7.47623 61.4309 8.15588 62.2987 8.77375C63.1666 9.45341 64.0344 10.0713 64.8403 10.8127C65.6461 11.4924 66.452 12.172 67.2578 12.9135C67.6298 13.2842 68.0637 13.6549 68.4356 14.0257C68.8075 14.3964 69.1795 14.7671 69.6134 15.1996C70.4193 15.9411 71.1011 16.8061 71.907 17.6093C72.6509 18.4743 73.4567 19.3393 74.2006 20.2661C74.2006 20.2661 73.7667 20.6987 73.5807 20.884C74.6965 21.8726 75.5023 22.8612 76.1222 23.7262C74.7585 23.4173 73.2707 22.7376 71.783 22.058C71.0391 21.749 70.3573 21.4401 69.6754 21.193C69.0555 20.9458 68.4356 20.6987 67.9397 20.6369C66.9479 20.3897 66.328 20.5133 66.39 21.193C66.452 21.5637 66.6379 22.058 67.0099 22.7376C67.3818 23.4791 68.0017 24.3441 68.6836 25.5181C68.1877 25.1473 67.7537 24.8384 67.3198 24.5295C67.2578 24.4677 67.2578 24.4677 67.1958 24.4059C67.1958 24.4059 67.1958 24.4059 67.1958 24.4677C65.0262 23.0466 63.4765 22.5523 61.7408 22.3669C62.3607 22.8612 62.9806 23.3555 63.6005 23.8498C64.1584 24.4059 64.7783 24.9002 65.3362 25.4563C64.8403 25.5181 64.4063 25.7034 64.2824 26.1359C64.1584 26.0741 63.9724 26.0741 63.8484 26.0123C63.3525 25.5798 62.9186 25.2091 62.9186 25.2091C62.6087 25.2091 62.3607 25.2709 62.1128 25.3945C60.1911 24.5912 57.8975 23.5409 56.0998 22.9848C55.6659 22.8612 55.232 22.7376 54.8601 22.6758C54.4881 22.6141 54.1782 22.6141 53.9302 22.6141C53.4343 22.6141 53.1864 22.7994 53.2484 23.2319C53.7443 24.1587 56.2238 24.9002 58.8893 26.5066C58.9513 26.692 59.0753 26.9392 59.1993 27.1245C57.5256 26.0123 57.2156 26.5066 57.0917 27.0009C56.9677 27.557 56.9057 28.1749 55.9759 27.6188C53.5583 25.9506 50.8308 24.8384 48.1033 23.9734C45.3758 23.1084 42.5863 22.7376 39.9208 22.923C37.2552 23.0466 34.6517 23.6644 32.3581 24.7148C30.0645 25.7652 28.0189 27.1863 26.5312 29.1017C25.0435 30.9553 23.9896 33.1796 23.4937 35.6511C23.4317 36.0836 23.3078 36.5162 23.2458 36.9487C22.6259 41.8298 23.5557 46.8964 25.4774 51.8393C25.1674 51.5922 24.8575 51.3451 24.5475 51.0979C25.2294 53.1369 26.2212 55.1141 27.399 56.9677L28.3289 58.327C28.6388 58.7595 29.0107 59.192 29.3827 59.5627L29.9406 60.1806L30.5605 60.7985C30.9944 61.1692 31.3663 61.6017 31.8002 61.9724C36.0155 65.6797 40.9126 68.6454 46.1196 71.7348C51.3267 74.8241 56.9677 77.9135 62.6087 82.0532C63.6625 82.8565 64.6543 83.6597 65.7081 84.4011L67.2578 85.5751C67.7537 85.9458 68.3116 86.3783 68.7456 86.8108C69.6754 87.6141 70.6052 88.4173 71.5351 89.2205C72.031 89.653 72.6509 90.0855 73.1468 90.5181C74.1386 91.3831 75.1304 92.3099 76.1222 93.1749L77.486 94.4724L78.1679 95.0903L78.4778 95.3992L78.6638 95.5228C78.6638 95.5228 78.6638 95.5228 78.7258 95.5846L78.7878 95.5228L78.8497 95.3992C80.1515 93.4838 81.5153 91.6302 82.879 90.0238C81.6392 91.7538 80.2755 93.7928 78.8497 95.9553L78.7258 96.1407C78.6638 96.1407 78.6638 96.0789 78.6018 96.0171L78.3538 95.77L77.8579 95.2757C77.548 94.9667 77.176 94.596 76.8041 94.2253C75.8743 92.9895 74.7585 92.0009 73.7667 90.9506C74.7585 92.1245 75.8743 93.1749 76.8041 94.2253L77.7959 95.461L78.2918 96.0789L78.5398 96.3878C78.6018 96.4496 78.6018 96.5114 78.6638 96.5114L78.7878 96.3878C79.5936 95.5228 80.2755 94.5342 81.1433 93.6692C81.5153 93.2367 81.9492 92.7424 82.3211 92.3099C82.693 91.8774 83.127 91.4449 83.4369 91.0124C83.6229 90.7652 83.8088 90.5798 83.9328 90.3327C84.1188 90.0855 84.3667 89.8384 84.5527 89.5912C84.9246 89.0969 85.2966 88.6027 85.6685 88.1084C85.8545 87.6758 86.5983 86.8726 87.1562 86.1312C87.7141 85.3897 88.2101 84.6483 88.706 83.9068C89.5738 83.5361 89.6978 83.7833 90.3797 83.289C95.0288 79.6435 99.8639 76.4306 102.777 72.6616C102.591 72.4144 104.389 70.9933 103.459 70.9933C106.869 67.904 110.712 64.5057 113.068 61.1074C114.121 59.6863 114.865 58.0181 115.299 56.288C116.167 54.8669 116.911 53.384 117.531 51.9629C117.655 51.5922 117.841 51.2215 117.965 50.9125L118.337 49.8622C118.461 49.4914 118.523 49.1825 118.647 48.8736C118.709 48.5646 118.833 48.2557 118.895 47.885C119.204 46.5874 119.39 45.2281 119.514 43.9306C119.576 42.6331 119.576 41.3355 119.39 40.0998C119.08 37.6901 118.275 35.6511 117.283 34.4154C117.159 34.23 117.035 34.1065 116.911 33.9829C116.787 33.8593 116.725 33.6739 116.539 33.6122C116.415 33.4886 116.291 33.4268 116.167 33.3032C116.043 33.2414 115.919 33.1179 115.795 33.0561C115.299 32.8089 114.865 32.5618 114.245 32.4382C113.687 32.2528 113.006 31.9439 112.2 31.7585C111.332 31.5732 110.402 31.3878 109.41 31.326C110.898 30.8935 112.386 30.8317 113.687 30.9553C114.989 31.0789 116.105 31.3878 117.097 31.9439C117.717 32.8707 118.213 33.9211 118.771 35.1568C119.328 36.3926 119.886 37.8755 120.692 39.4819C120.754 39.6673 120.816 39.8527 120.878 40.038L121.064 40.5941C121.188 40.9648 121.312 41.3973 121.374 41.8298C121.374 39.3584 120.816 37.134 120.01 35.404C119.948 35.1568 119.824 34.9715 119.7 34.7861C119.576 34.6007 119.514 34.4154 119.39 34.23C119.266 34.0447 119.142 33.9211 119.018 33.7357C118.956 33.6739 118.895 33.5504 118.833 33.4886L118.647 33.3032C118.523 33.1796 118.399 32.9943 118.275 32.8707C118.151 32.7471 118.027 32.6236 117.903 32.5618L117.717 32.3764C117.655 32.3146 117.593 32.3146 117.531 32.2528C117.407 32.1911 117.283 32.0675 117.159 31.9439C116.787 31.4496 116.415 30.8935 115.795 30.461C115.547 30.2139 115.175 30.0285 114.865 29.7814C114.679 29.6578 114.493 29.596 114.307 29.5342L113.997 29.4106C113.873 29.3488 113.811 29.3489 113.687 29.2871C113.749 29.2871 113.749 29.2871 113.811 29.2871C115.237 29.4106 116.601 29.7814 117.655 30.3992C117.841 30.6464 118.027 30.8317 118.213 31.0789C118.337 31.326 118.523 31.5732 118.709 31.8203C118.833 32.0675 119.018 32.3146 119.204 32.5618C119.328 32.8707 119.514 33.1179 119.7 33.365C120.32 34.4772 120.94 35.7129 121.622 37.0722C121.808 37.3812 121.994 37.7519 122.18 38.1226L122.428 38.6787L122.614 39.2966C122.738 39.7291 122.924 40.0998 122.986 40.5323C122.8 38.9876 122.552 37.5047 122.118 36.2072C121.684 34.9097 121.064 33.7975 120.444 32.9325C120.196 32.6854 120.01 32.4382 119.824 32.1293C119.576 31.9439 119.39 31.6968 119.142 31.4496C118.895 31.2642 118.647 31.0789 118.461 30.8935C118.213 30.77 117.965 30.6464 117.717 30.461C117.593 30.3374 117.469 30.2139 117.345 30.0903C117.221 29.9667 117.097 29.8431 116.973 29.7196C116.849 29.596 116.663 29.4724 116.539 29.3489C116.477 29.2871 116.415 29.2253 116.353 29.1635L116.105 28.9781C116.229 28.9781 116.353 28.9163 116.477 28.9163C116.663 28.9163 116.973 28.8546 117.469 28.731C117.717 28.6692 117.965 28.5456 118.213 28.422C118.461 28.3603 118.709 28.2367 118.956 28.1131C119.948 27.6806 121.002 27.0627 120.754 26.3213C119.328 25.1473 117.407 24.1587 115.299 23.6027C113.13 23.0466 110.836 22.923 108.79 23.1084C106.745 23.2937 105.071 23.7262 103.893 24.0969C103.335 24.2823 102.839 24.4677 102.529 24.5912C102.22 24.653 102.034 24.7766 102.034 24.7148C101.91 24.5912 102.034 24.4059 102.282 24.1587C102.591 23.9116 103.025 23.6027 103.583 23.2937C104.761 22.7376 106.559 22.058 108.418 21.749C110.278 21.4401 112.2 21.4401 113.563 21.5019C114.245 21.5637 114.803 21.6255 115.175 21.6255C115.547 21.6255 115.733 21.6873 115.671 21.6255C115.299 21.4401 114.865 21.2547 114.431 21.1312L113.811 20.884L113.13 20.6987C113.378 20.6987 113.563 20.6369 113.811 20.6369C114.059 20.6369 114.245 20.6369 114.493 20.6369C114.927 20.6369 115.361 20.5751 115.795 20.5751C116.229 20.6369 116.725 20.8222 117.221 20.9458C117.717 21.0694 118.151 21.3165 118.647 21.5019C119.142 21.6873 119.514 21.8726 119.948 22.058C120.32 22.2433 120.754 22.3051 121.064 22.3669C123.358 22.7994 125.403 24.2205 127.015 26.1359C128.689 28.0513 129.929 30.461 131.168 33.0561C131.354 33.4886 131.602 33.8593 131.788 34.2918C131.974 34.7243 132.16 35.2186 132.346 35.6511C132.532 36.1454 132.718 36.6397 132.904 37.134C133.09 37.6283 133.276 38.1844 133.4 38.6787C134.02 40.8412 134.454 43.2509 134.64 45.7224C135.198 45.846 134.454 48.1939 135.198 47.5143C134.702 49.8004 133.958 52.1483 133.338 54.249C132.966 55.2994 132.718 56.288 132.532 57.153C132.346 58.0181 132.284 58.8213 132.408 59.5009C132.346 59.6245 132.346 59.7481 132.284 59.8099C132.098 60.1188 131.974 60.5513 131.788 61.1074C129.619 64.4439 127.759 67.2861 126.023 70.1283C124.226 72.9087 122.428 75.6892 120.134 78.5314C118.399 80.3232 116.539 82.0532 114.555 83.6597C115.857 82.6093 117.965 81.1882 119.08 79.8289C119.452 79.3964 119.824 78.9639 120.134 78.5314C124.659 73.8973 128.379 68.7072 131.23 63.2082C131.354 62.6521 131.602 61.8489 131.788 61.1074C132.036 60.7367 132.284 60.366 132.532 59.9952C132.47 59.8717 132.47 59.6863 132.408 59.5009C133.462 56.7823 134.454 53.7547 135.012 50.8508C135.57 47.9468 135.817 45.0428 135.569 42.6331C135.508 40.347 135.322 38.1226 134.95 35.8365C134.578 33.6122 134.02 31.3878 133.214 29.2253C132.408 27.0627 131.292 25.0238 129.99 23.1701L128.937 21.8108L127.759 20.5751C127.387 20.1426 126.953 19.7719 126.519 19.4011C126.085 19.0304 125.651 18.5979 125.217 18.289C129.185 20.5133 132.532 24.0352 134.702 28.1131C133.4 25.5181 131.726 23.1701 129.743 21.3165C127.759 19.4629 125.527 18.0418 123.234 16.9914C122.924 16.8061 122.552 16.6207 122.242 16.4354L121.746 16.1264L121.188 15.8793C121.188 15.8793 120.94 15.7557 120.506 15.5703C120.072 15.385 119.514 15.1378 118.956 14.9525C118.399 14.7671 117.841 14.5817 117.407 14.3964C116.973 14.2728 116.663 14.211 116.663 14.211C117.407 14.4582 118.089 14.7671 118.771 15.076C119.452 15.3232 120.134 15.6939 120.754 16.0646C117.903 15.1378 114.989 14.7671 112.138 14.8289C108.232 14.7671 104.389 15.3232 100.794 16.6207L99.43 17.115L98.1283 17.6711L97.5084 17.98L96.8885 18.289L95.6487 18.9686C94.037 19.9572 92.4253 21.0076 90.9995 22.2433C88.0241 24.653 85.4825 27.557 83.2509 30.6464C81.0813 33.7975 79.2217 37.2576 77.672 40.7795C77.424 40.347 77.238 39.9144 77.0521 39.4201C78.4158 35.8365 80.2135 32.5 82.1971 29.4106C84.1808 26.3213 86.2884 23.5409 88.272 20.884C87.8381 21.2547 87.4042 21.6255 87.0323 21.9344C86.6603 22.3051 86.2884 22.6758 85.9784 23.0466C85.2966 23.7262 84.6767 24.5295 84.1188 25.2709C83.5609 26.0123 83.003 26.8156 82.4451 27.557C81.9492 28.3603 81.3293 29.1635 80.7714 30.0903C80.6474 29.9667 80.3995 29.9049 80.5234 29.5342C79.2217 32.0057 77.8579 35.0333 76.7421 37.9373C76.5562 37.3194 76.4942 36.7015 76.3702 36.0219C76.2462 35.3422 76.1842 34.6625 76.1222 33.9829C76.3702 32.2528 77.61 30.0285 78.8497 27.8042C81.8252 23.1701 85.6065 19.154 90.1937 16.1264L91.0615 15.5703C91.3715 15.385 91.6194 15.1996 91.9294 15.076C92.5493 14.7671 93.1072 14.3346 93.7271 14.0874L95.5867 13.1606L97.5084 12.3574C100.112 11.3688 102.839 10.6892 105.629 10.1949C108.17 10.0095 110.712 10.0713 113.192 10.442C115.671 10.8127 118.151 11.4306 120.568 12.3574C121.188 12.5428 121.746 12.8517 122.304 13.0988L123.172 13.4696C123.482 13.5931 123.73 13.7785 124.04 13.9021C124.597 14.211 125.155 14.52 125.713 14.8289L127.263 15.9411C127.821 16.3118 128.255 16.7443 128.751 17.115C129.247 17.5475 129.743 17.9182 130.176 18.4125L131.478 19.7719L132.656 21.2547C132.222 20.8222 131.788 20.3279 131.354 19.8954C130.858 19.4629 130.424 19.0922 129.929 18.6597C129.681 18.4743 129.495 18.2272 129.247 18.0418L128.503 17.4857C128.007 17.1768 127.511 16.7443 127.015 16.4971C125.961 15.9411 124.969 15.3232 123.916 14.8907C122.862 14.3964 121.808 14.0874 120.754 13.7167C118.585 13.0988 116.477 12.7281 114.307 12.6046C111.766 11.8631 109.658 12.0485 107.675 12.2956ZM52.1945 13.0371C51.6986 12.9135 51.1407 12.8517 50.5828 12.7281L49.777 12.6046L48.9711 12.5428C49.0951 12.6663 49.2811 12.7281 49.4051 12.8517C50.2729 13.0988 51.3267 13.1606 52.1945 13.0371ZM28.0189 13.2224C31.5523 12.0485 35.7055 11.1835 40.1067 10.9363C42.3383 10.8745 44.5699 10.8745 46.8635 11.1834C47.4214 11.2452 48.0413 11.307 48.5992 11.4306C49.1571 11.5542 49.777 11.616 50.3349 11.7395L52.0706 12.172C52.6285 12.2956 53.1864 12.481 53.7443 12.6663C53.8063 12.6046 53.8682 12.5428 53.9302 12.481C53.4963 12.2956 53.0624 12.1103 52.5665 11.9249C52.0706 11.7395 51.5747 11.616 51.0788 11.4306C50.0869 11.1217 49.0331 10.8745 47.9793 10.6892C45.8717 10.3184 43.6401 10.0713 41.3465 10.1949C40.2307 10.1949 39.1149 10.3184 37.9371 10.442C36.8213 10.6274 35.7055 10.7509 34.5897 11.0599C32.2961 11.4924 30.1265 12.2956 28.0189 13.2224ZM3.90527 35.4658C3.96726 35.404 3.96726 35.3422 4.02925 35.2804C3.96726 35.2804 3.96726 35.2804 3.90527 35.2804C3.90527 35.3422 3.90527 35.404 3.90527 35.4658ZM80.3375 112.452C79.7176 113.441 79.0977 114.43 78.4158 115.48L78.1679 115.604H78.1059L78.0439 115.542L77.9199 115.418L77.424 114.986C77.1141 114.677 76.7421 114.368 76.4322 114.059C75.7503 113.441 75.0684 112.7 74.3246 112.02C73.5807 111.279 72.8988 110.537 72.1549 109.734C71.4111 108.931 70.6052 108.189 69.7994 107.386C68.1877 105.718 66.514 104.049 64.8403 102.381C63.9724 101.578 63.1046 100.775 62.1128 99.9715L61.4309 99.4154L60.935 99.0447L59.9431 98.2414C59.5092 97.8707 59.0753 97.5 58.5174 97.1911C57.9595 96.8821 57.4016 96.635 56.8437 96.3878C55.6659 95.8317 54.4881 95.2139 53.3103 94.2871C51.7606 93.2367 50.3349 92.4952 49.0331 91.8156C47.7314 91.1359 46.4296 90.5798 45.0658 89.7766C45.0658 89.7766 45.4998 90.2091 45.8717 90.7034C46.2436 91.1359 46.6775 91.6302 46.6775 91.6302C44.5079 89.962 42.4623 89.0352 40.3547 87.9848C38.3091 86.9962 36.2014 85.9458 33.9079 83.9068C33.7219 84.154 32.6681 84.0922 31.9862 83.5979C28.2049 81.1882 24.9815 77.7899 21.82 75.442C20.8902 74.7006 20.0224 73.7738 19.1545 72.9705C18.7206 72.538 18.2867 72.1055 17.8528 71.6112C17.4188 71.1787 17.0469 70.7462 16.613 70.2519C14.8773 68.3365 13.3896 66.4211 12.0258 64.6911C11.7778 64.1968 11.158 63.6407 10.4761 62.8992C9.79421 62.1578 9.05034 61.2928 8.43045 60.366C7.81056 59.1302 7.25266 57.8945 6.75675 56.6587L6.01289 54.7433L5.57897 53.7547C5.45499 53.4458 5.393 53.0751 5.26902 52.7662C5.20703 52.8897 5.20703 53.0133 5.14505 53.1369C5.76493 55.2994 6.57079 57.462 7.6246 59.4392C9.23631 62.4049 11.2199 65.4325 13.5135 68.1511C14.0714 68.8308 14.6913 69.5105 15.3112 70.1901C15.6212 70.499 15.9311 70.8698 16.1791 71.1787C16.489 71.4876 16.737 71.7348 17.0469 72.0437C18.1627 73.2177 19.3405 74.2681 20.4563 75.3184C25.9113 80.385 31.6143 83.9068 36.8833 86.8726C42.1524 89.9002 47.1115 92.3717 51.6367 95.0903C53.5583 96.2642 55.6659 97.1911 57.6496 98.4268C58.3934 98.9211 59.0753 99.4154 59.8192 99.9097L60.3771 100.28L60.501 100.404L60.687 100.589L61.1209 100.898C61.6788 101.331 62.2367 101.763 62.7326 102.196L64.2824 103.555C64.7783 104.049 65.2742 104.544 65.7701 105.038C66.7619 105.965 67.6917 106.953 68.6216 107.88C69.5514 108.807 70.4812 109.672 71.3491 110.475C72.2169 111.279 73.0228 112.082 73.7667 112.761C75.3164 114.121 76.6181 115.109 77.672 115.604C77.8579 115.665 78.1679 116.098 78.4778 115.789C79.0977 114.739 79.9035 113.626 80.3375 112.452ZM83.003 91.1977C81.5772 93.2985 80.0275 95.5228 78.5398 97.7471L78.4158 97.8707L78.3538 97.9325L78.2918 97.8707L78.1059 97.6854L77.7339 97.3146L76.9281 96.5114C76.3702 95.9553 75.8743 95.3992 75.3164 94.7814C74.2006 93.6692 73.0848 92.4952 72.031 91.3831C71.659 91.0123 71.1011 90.5798 70.5432 90.1473C70.1713 89.8384 69.7374 89.4677 69.3035 89.1587C68.8075 88.7262 68.2496 88.3555 67.6917 87.923C67.4438 87.7376 67.1339 87.4905 66.8859 87.3051C66.576 87.1198 66.266 86.9344 66.0181 86.6873C65.3982 86.3165 64.7783 85.884 64.2204 85.5133C62.9806 84.7719 61.8028 84.0304 60.625 83.3507C58.2075 82.115 56.0379 81.25 54.4881 80.9411C52.9384 80.6939 52.0706 81.0028 52.1945 82.1768C53.7443 82.0532 55.9139 82.7329 58.4554 83.9686C59.6952 84.5865 60.997 85.4515 62.3607 86.3165C63.0426 86.749 63.7245 87.2433 64.4683 87.7376C65.2122 88.2319 65.8941 88.7262 66.576 89.3441C67.2578 89.9002 68.0017 90.5181 68.6836 91.1359C69.2415 91.5684 69.7374 92.0627 70.2953 92.557C70.8532 92.9895 71.2871 93.4838 71.783 93.9781C72.2789 94.4724 72.7748 94.9667 73.2707 95.461C73.7667 95.9553 74.2626 96.4496 74.6965 96.9439C75.1304 97.4382 75.5643 97.9943 75.9983 98.4886C76.4322 98.9829 76.8661 99.4772 77.238 99.9715C77.424 100.219 77.672 100.466 77.8579 100.651L78.1679 100.96L78.2298 101.022C78.2298 101.022 78.2918 101.084 78.2918 101.022L78.4158 100.836C80.3375 98.3032 82.1351 96.2025 83.003 94.596C84.0568 93.1131 83.9948 92.0627 83.003 91.1977ZM120.506 46.8964C120.444 47.4525 120.32 48.0085 120.258 48.5646C120.134 49.1207 120.01 49.6768 119.824 50.2329C119.39 51.4068 118.833 52.6426 118.027 53.8783C118.647 52.7044 119.142 51.4686 119.576 50.2947C119.762 49.6768 119.948 49.1825 120.134 48.6264C120.258 48.0085 120.382 47.4525 120.506 46.8964ZM111.27 77.0485C114.679 72.9087 118.213 68.8308 121.25 64.5675C122.738 62.4667 124.102 60.2424 125.279 58.0181C126.395 55.7937 127.325 53.5076 127.945 51.2833C128.069 50.8508 128.193 50.4182 128.317 49.9857C128.441 49.5532 128.503 49.1207 128.627 48.6882C128.875 47.8232 129.061 46.9582 129.247 46.0314C129.619 44.2395 129.929 42.4477 129.99 40.7177C130.238 37.1958 129.495 33.6739 127.635 31.326L126.829 31.635L127.263 32.1293C127.697 34.23 127.511 36.0219 127.387 37.8755C127.325 37.7519 127.325 37.6901 127.263 37.5665C127.263 37.7519 127.325 37.9373 127.325 38.1226C127.263 38.7405 127.201 39.3584 127.201 40.038C127.139 40.7177 127.201 41.3973 127.201 42.1388C127.263 42.8184 127.325 43.5599 127.325 44.3013C127.263 45.3517 127.015 46.3403 126.829 47.3289L126.457 48.8736C126.333 49.3679 126.147 49.8622 126.023 50.3565C125.899 50.8508 125.713 51.3451 125.527 51.8393C125.341 52.3336 125.155 52.8279 124.969 53.3222C124.721 53.8165 124.535 54.3108 124.35 54.8051C124.102 55.2994 123.854 55.7937 123.668 56.288C121.684 60.2424 119.266 64.0732 116.849 67.7804C113.687 72.2291 110.898 76.4306 106.993 80.6321C108.108 79.5817 110.216 78.2842 111.27 77.0485Z" fill="#FF1B31"/>
</svg>
