<svg width="207" height="188" viewBox="0 0 207 188" fill="none" xmlns="http://www.w3.org/2000/svg">
<path d="M97.38 71.024C98.82 70.1214 100.44 69.1285 102.15 68.1356C104.22 66.5108 106.29 64.886 108.54 63.171C110.61 61.5462 112.68 59.9215 114.84 58.2967C118.98 55.1375 123.12 51.9782 126.63 49.4508C133.65 44.3057 138.33 41.1464 136.71 43.1323L140.22 41.2367C136.8 43.8544 130.68 48.5481 123.93 53.7835C120.51 56.4012 117 59.1091 113.49 61.7268C109.89 64.4347 106.38 67.1426 103.23 69.4895C102.33 70.0311 101.43 70.5727 100.53 71.024C99.81 71.3851 99.09 71.8364 98.46 72.1975C97.11 72.9196 95.94 73.6417 94.86 74.1833C92.7 75.3567 91.17 76.1691 90.45 76.4399C88.83 77.0718 90.54 75.6275 97.38 71.024Z" fill="#BE0411"/>
<path d="M90.72 68.948C105.3 60.734 94.5 67.5038 92.16 69.3994C92.16 69.3994 90.9 70.1215 89.1 71.2047C88.2 71.7462 87.12 72.3781 85.95 73.1002C84.78 73.7321 83.61 74.6347 82.35 75.3568C79.92 76.9816 77.49 78.5161 75.69 79.6895C74.79 80.3214 73.98 80.7727 73.44 81.1338C72.9 81.4948 72.63 81.6753 72.63 81.6753C69.48 83.3001 72 81.4948 76.32 78.5161C78.48 77.0719 81 75.2666 83.52 73.4613C84.78 72.5586 86.13 71.8365 87.3 71.0241C88.47 70.302 89.64 69.5799 90.72 68.948Z" fill="white"/>
<path d="M92.97 54.7765C92.88 54.7765 92.97 54.7765 92.88 54.7765C92.79 54.8667 92.61 54.8667 92.52 54.957C91.98 55.2278 91.17 55.6791 90.45 56.1305C88.92 56.9428 87.39 57.7552 87.39 57.7552C89.01 56.8526 90.99 55.7694 92.97 54.7765C92.97 54.6862 93.06 54.596 93.15 54.596L93.33 54.4154L94.23 53.7836C94.77 53.3322 95.4 52.8809 95.94 52.5199C97.11 51.6172 98.28 50.8048 99.36 49.9022C101.61 48.1872 103.77 46.4721 105.57 45.1182C105.84 45.1182 104.67 46.3819 102.42 48.3677C101.34 49.3606 99.9 50.534 98.37 51.7977C97.56 52.4296 96.75 53.1517 95.85 53.7836C95.13 54.4154 94.32 55.0473 93.51 55.6791C92.43 56.311 91.26 57.0331 90.09 57.7552C88.74 58.4773 87.39 59.2897 86.04 60.1021C86.67 59.5605 88.02 58.6579 89.46 57.7552C90.18 57.3039 90.99 56.7623 91.62 56.311C91.98 56.0402 92.34 55.8597 92.61 55.5889L92.88 55.4083C92.97 55.3181 93.06 55.3181 93.06 55.3181L93.15 55.2278V55.1375L93.24 55.0473C93.42 54.8667 93.6 54.7765 93.69 54.596C93.96 54.3252 94.05 54.2349 94.14 54.1446C94.14 54.0544 94.05 54.1446 93.78 54.2349C93.6 54.3252 93.42 54.4154 93.24 54.596C93.15 54.596 93.15 54.6862 93.06 54.6862C93.15 54.6862 93.06 54.7765 92.97 54.7765C93.06 54.7765 93.06 54.7765 92.97 54.7765Z" fill="#BE0411"/>
<path d="M79.2 102.436C81.72 99.2769 70.92 104.061 55.08 112.275C55.71 113.087 56.34 113.9 56.97 114.712C61.47 111.011 66.51 107.04 72.09 103.068C72.09 103.068 70.56 105.325 69.03 107.491C68.22 108.574 67.59 109.748 67.05 110.56C66.51 111.372 66.15 111.914 66.15 111.914C64.08 113.448 62.01 115.344 59.76 117.33C57.6 114.532 55.35 111.733 53.1 108.845C62.82 103.158 75.15 95.3955 88.02 87.0009C94.41 82.6682 100.89 78.2452 107.28 73.9125C110.52 71.7462 113.67 69.5798 116.82 67.5037C118.35 66.4206 119.97 65.4276 121.41 64.3445C122.94 63.2613 124.38 62.2684 125.91 61.1852C130.86 57.3038 124.56 61.456 120.15 64.2542C117.9 65.6082 116.28 66.6011 116.73 66.0595C117 65.7887 117.81 65.1568 119.34 64.0737C120.87 62.9002 123.21 61.1852 126.45 58.8383C129.69 57.1233 127.89 59.1994 133.65 55.4985C144.45 47.465 147.24 44.6668 152.37 40.3341C157.41 35.9111 164.79 29.9536 184.77 15.421L195.21 27.7873C193.86 29.051 192.51 30.3147 191.07 31.7589C189.63 33.1129 188.1 34.6474 186.48 36.0014C186.48 36.0014 185.4 36.8137 183.78 38.0775C182.16 39.3412 180.09 41.0562 177.93 42.5907C175.77 44.2154 173.61 45.7499 171.99 46.9234C170.37 48.0968 169.29 48.8189 169.29 48.8189C152.28 62.6294 134.37 75.447 116.91 88.5354C99.45 101.624 82.44 115.163 67.41 130.238C65.16 126.176 62.91 122.024 60.66 117.962C63.09 117.42 65.7 116.156 68.31 114.622C70.92 113.087 73.53 111.192 76.14 109.116C81.36 105.054 86.49 100.36 92.25 95.7566C93.69 94.5831 95.22 93.4999 96.75 92.3265L99.18 90.7017L101.43 89.2575C104.49 87.362 107.55 85.3761 110.61 83.6611C116.73 80.0505 122.85 76.7107 128.88 73.2807C140.94 66.6011 152.64 59.9215 162.9 52.0685C165.6 49.9021 168.39 47.826 171.09 45.6597C172.62 44.5765 174.15 43.4933 175.77 42.5004C177.39 41.5978 178.92 40.5146 180.63 39.7022C187.2 36.1819 193.95 33.5642 200.52 31.3979C201.78 36.5429 202.95 41.5075 204.21 46.4721C196.38 47.6455 189.09 51.1658 182.52 56.1304C180.99 57.5746 179.1 59.2896 177.03 61.456C176.49 61.9976 175.95 62.5392 175.41 63.171C174.87 63.8029 174.33 64.3445 173.7 64.9763C172.35 66.4205 171 67.8648 169.56 69.3993C163.71 75.447 156.51 81.8558 148.77 88.2646C133.38 100.992 116.19 113.629 104.22 123.829L103.05 123.648C97.02 129.335 88.56 136.285 80.46 143.958C76.95 139.174 73.35 134.39 69.84 129.606C72.9 127.981 75.96 126.356 79.02 124.641C82.08 123.016 85.23 121.392 88.29 119.677C91.35 117.962 94.32 116.247 97.2 114.622C100.08 112.997 102.87 111.372 105.48 109.657C105.48 109.657 109.89 107.13 114.39 104.693C118.8 102.256 123.21 99.6379 123.21 99.6379C125.01 98.9158 122.94 100.541 118.89 103.249C114.84 105.956 108.99 109.657 103.41 113.268C92.16 120.218 81.99 126.627 90.45 122.926C95.22 120.309 99.81 117.691 104.13 115.163C108.45 112.546 112.59 109.928 116.64 107.401C120.69 104.873 124.56 102.256 128.34 99.7282C132.12 97.2008 135.81 94.7637 139.41 92.2362C153.99 82.2169 167.67 72.4683 183.6 62.6294C190.71 57.8454 195.93 54.2348 199.98 51.5269L207 58.9286C205.74 60.6436 204.57 62.0878 203.49 63.4418C202.5 64.7958 201.42 65.9692 200.61 67.0524C199.71 68.1356 198.9 69.1285 198.09 70.1214C197.28 71.024 196.47 71.9267 195.66 72.8293C192.51 76.4399 189.18 80.0505 182.34 85.9177C180.27 88.1743 181.89 87.0912 183.87 85.8275C184.32 85.4664 184.86 85.1956 185.4 84.8345C185.85 84.4735 186.3 84.2027 186.66 84.0222C187.38 83.5708 187.83 83.4806 187.56 84.0222C174.78 95.215 163.26 102.346 153.45 108.123C143.55 113.809 135.18 118.052 127.53 121.843C126.54 122.294 125.64 122.746 124.65 123.287L123.93 123.648L123.39 123.919C123.03 124.1 122.67 124.28 122.31 124.461C120.87 125.363 119.34 126.356 117.81 127.439C114.75 129.606 111.78 132.043 108.81 134.661C105.84 137.188 102.78 139.986 99.72 142.875C96.66 145.853 93.42 149.013 90.18 152.533C88.47 150.096 86.67 147.388 84.78 144.77C94.32 141.34 105.12 136.195 118.08 128.523C118.53 128.071 121.95 125.815 126 123.016C130.05 120.218 134.73 116.969 137.97 114.532C141.21 112.094 142.92 110.65 140.94 111.463C138.96 112.275 133.38 115.525 121.95 122.114C121.95 122.114 120.6 123.016 118.62 124.19C116.64 125.454 114.03 127.169 111.33 128.703C108.63 130.328 106.02 131.862 103.95 133.036C101.97 134.209 100.62 134.931 100.62 134.931C100.62 134.931 99.63 135.383 98.19 135.924C97.47 136.195 96.66 136.556 95.67 137.008C94.77 137.369 93.78 137.73 92.79 138.091C91.8 138.452 90.81 138.813 89.91 139.174C89.01 139.535 88.11 139.806 87.39 140.076C85.95 140.618 84.96 140.889 84.96 140.889C87.12 139.986 89.55 139.084 91.98 137.91C93.24 137.369 94.5 136.737 95.85 136.105C97.11 135.473 98.46 134.841 99.81 134.119L101.79 133.126L103.77 132.043C105.12 131.321 106.38 130.599 107.64 129.967C110.16 128.523 112.68 127.078 115.02 125.724C124.29 120.218 130.95 115.705 128.88 116.427C134.19 114.08 142.74 108.935 152.55 102.797C162.36 96.7495 173.34 89.7088 183.78 84.0222C186.48 89.3478 189.09 94.4929 191.7 99.6379C180 106.047 170.55 112.907 166.77 115.434C164.88 116.698 164.34 116.878 165.78 115.525C166.5 114.893 167.67 113.809 169.38 112.365C170.28 111.643 171.27 110.831 172.44 109.928C173.61 109.025 174.87 107.942 176.31 106.859C181.98 103.429 187.02 100.902 191.25 98.7353C188.73 93.861 186.3 88.9867 184.23 84.9248C174.78 89.6186 168.21 93.5902 162.09 97.4716C155.97 101.353 150.39 105.325 143.28 110.379C157.05 101.804 170.73 93.3194 184.77 86.0982C186.75 89.8894 188.64 93.6805 190.53 97.3813C182.25 101.534 174.33 106.318 166.68 111.372C159.03 116.427 151.65 121.753 144.36 127.078C129.78 137.73 115.65 148.561 100.71 157.949C99.27 154.699 97.83 151.63 96.39 148.561C103.95 146.305 111.33 143.146 118.53 139.715C125.82 136.285 132.93 132.585 140.04 128.884C140.04 128.884 141.03 128.252 142.47 127.349C143.91 126.447 145.89 125.183 147.87 124.009C149.85 122.746 151.83 121.572 153.36 120.67C154.89 119.767 155.88 119.225 155.88 119.225C156.24 119.406 157.41 119.045 159.3 118.413C160.29 118.142 161.37 117.691 162.72 117.24C164.07 116.788 165.51 116.247 167.13 115.705L171.36 125.002C168.75 126.266 165.78 127.62 162.54 129.335C159.3 131.14 155.7 133.036 152.01 135.292C150.12 136.376 148.23 137.549 146.25 138.723C144.27 139.896 142.29 141.16 140.31 142.333C136.26 144.861 132.21 147.388 128.07 149.915C125.37 151.721 122.49 153.616 119.7 155.421C116.82 157.137 114.12 158.852 111.87 160.296C107.19 163.004 104.49 164.628 106.38 163.997C105.75 164.448 106.83 163.997 109.17 162.823C110.25 162.191 111.78 161.559 113.4 160.567C115.02 159.664 116.82 158.581 118.89 157.407C126.81 152.714 137.16 146.215 146.16 140.618C155.16 135.022 162.99 130.599 165.87 129.425C168.66 128.342 166.41 129.786 155.52 137.278C139.23 147.207 122.94 158.31 105.21 167.427C104.13 163.004 103.05 158.581 101.97 154.158C113.04 154.338 123.93 152.082 133.74 147.839C135.54 151.811 137.25 155.692 139.05 159.574C128.79 163.997 119.34 169.322 110.97 175.28C109.53 171.759 108.09 168.42 106.74 165.08C114.3 164.087 121.59 163.184 128.52 162.372L131.49 172.03C125.55 174.648 120.78 178.8 117.45 183.494C116.1 181.057 114.93 178.89 113.76 176.724C115.38 176.814 116.73 176.814 118.08 176.904L132.75 177.536L120.24 184.667C118.26 185.75 116.55 186.743 114.93 187.736C115.2 185.48 115.47 183.584 115.74 181.689C116.55 182.681 117.27 183.404 117.9 183.945C118.08 184.035 118.17 184.216 118.35 184.306C118.44 184.396 118.53 184.487 118.71 184.487L119.16 184.667L119.7 184.758C119.52 184.758 119.34 184.758 119.07 184.667C118.89 184.577 118.62 184.577 118.53 184.487C118.26 184.396 117.99 184.216 117.63 183.945C116.91 183.404 116.19 182.681 115.47 181.869C115.2 183.765 114.93 185.66 114.75 187.375C116.55 186.202 118.26 185.119 119.97 184.035L130.23 177.446H118.08C116.64 177.446 115.11 177.446 113.76 177.446C114.75 179.251 115.74 181.147 116.73 182.862C120.24 177.356 125.19 173.023 130.77 170.315L128.79 163.906C121.68 165.08 114.57 166.253 107.19 167.607C107.91 169.413 108.72 171.128 109.44 173.023C116.55 167.427 124.47 162.011 133.83 156.866C134.91 156.324 136.08 155.783 137.16 155.151C136.71 154.158 136.26 153.075 135.72 152.082C125.37 157.046 113.76 159.754 101.97 159.935C102.15 160.747 102.33 161.469 102.51 162.282C125.46 149.825 146.25 133.487 169.47 121.121L168.84 119.857C162.72 122.385 156.87 125.273 151.02 128.252C145.17 131.231 139.41 134.3 133.56 137.369C127.71 140.347 121.86 143.326 115.92 146.124C109.98 148.832 103.95 151.36 97.74 153.345L98.1 154.248C113.58 144.229 127.98 132.765 142.56 121.753C157.05 110.831 171.72 100.089 187.56 91.7849L187.74 92.146C180.18 96.1176 172.98 100.541 165.78 105.054C158.67 109.567 151.65 114.08 144.72 118.684C142.65 119.406 135.27 123.648 129.15 126.898C123.12 130.238 118.35 132.494 121.95 129.786C118.17 131.682 111.78 135.292 105.03 138.813C98.28 142.333 90.9 145.492 85.5 147.298C86.31 148.471 87.12 149.645 87.93 150.728C89.91 148.742 91.53 147.207 92.7 146.305C96.48 142.062 100.44 137.91 104.49 133.848C108.63 129.786 112.86 125.815 117.36 122.294C118.53 121.482 119.61 120.579 120.78 119.947C121.32 119.586 122.04 119.225 122.67 118.864L124.65 117.781C127.26 116.337 129.87 114.802 132.48 113.358C137.7 110.379 142.92 107.401 148.14 104.241C153.36 101.082 158.49 97.8326 163.53 94.4026C166.05 92.6876 168.57 90.8823 171 89.077C172.26 88.1743 173.43 87.1814 174.69 86.2788L176.49 84.8345L178.29 83.3903C183.06 79.5992 187.65 75.3568 191.97 71.024C196.29 66.6913 200.25 61.9073 204.03 57.1233L201.42 54.4154C183.06 66.9621 164.88 79.2381 147.15 90.792C138.33 96.5689 129.51 102.075 121.05 107.491C112.5 112.726 104.13 117.962 95.94 122.655C101.79 120.038 100.89 121.121 96.21 124.19C95.04 125.002 93.6 125.905 92.07 126.898C91.26 127.439 90.45 127.891 89.55 128.523C88.65 129.064 87.75 129.606 86.76 130.147C82.8 132.404 78.3 135.022 73.62 137.73C73.71 137.91 73.8 138 73.89 138.181C85.05 126.898 99.09 115.886 106.2 109.838C114.75 103.88 126.18 95.576 137.79 86.369C143.64 81.7655 149.49 76.9815 154.98 72.017C156.33 70.7533 157.68 69.5798 159.03 68.3161C160.38 67.0524 161.64 65.879 162.9 64.6153C165.42 62.0878 167.76 59.6507 170.1 57.3038C170.91 56.1304 174.33 52.7003 177.39 50.1729C180.45 47.5552 182.97 45.7499 181.08 46.5623C172.98 52.1587 168.39 57.3038 163.62 61.9073C161.28 64.2542 158.67 66.4206 155.88 68.948C154.44 70.1214 152.91 71.4754 151.29 72.8293C149.67 74.1833 147.87 75.6275 145.98 77.2523C147.15 75.6275 149.76 73.2807 153 70.1214C153.81 69.3993 154.71 68.5869 155.7 67.6843C156.6 66.7816 157.59 65.879 158.58 64.9763C160.65 63.171 162.72 61.0047 164.97 58.8383C169.47 54.3251 174.87 49.4508 181.26 45.5694C187.56 41.688 194.85 38.7996 202.23 37.7164L202.95 40.6951C201.87 41.0562 200.79 41.4172 199.71 41.7783L202.86 40.4243L202.23 37.8969C198.18 38.7996 194.4 40.2438 190.71 42.0491C194.4 40.5146 198.27 39.3412 202.32 38.7093L202.5 39.5217C196.92 41.327 191.43 43.4031 186.03 46.0207C184.68 46.7429 183.33 47.3747 182.07 48.0968L180.09 49.2703C179.46 49.6313 178.74 49.9924 178.11 50.4437L176.22 51.7074L175.23 52.3393L174.33 53.0614C173.07 53.964 171.9 54.8667 170.64 55.7693C161.1 63.3516 150.39 69.3993 139.77 75.086C129.15 80.7726 118.44 86.1885 108.54 92.146C106.11 93.6805 103.68 95.1247 101.25 96.6592C98.82 98.284 96.66 99.999 94.5 101.804C90.27 105.325 86.4 108.935 82.53 112.275C82.53 112.275 84.42 110.921 87.3 108.755C90.09 106.588 93.87 103.7 97.74 100.992C101.61 98.1937 105.84 96.1176 108.9 94.3123C110.43 93.4097 111.69 92.6876 112.68 92.2362C113.58 91.7849 114.12 91.5141 114.12 91.5141C111.96 92.7778 109.89 94.1318 107.73 95.4858C106.65 96.1176 105.57 96.8397 104.49 97.5619C103.95 97.9229 103.41 98.1937 102.87 98.5548L101.34 99.6379C97.2 102.617 93.24 106.047 89.19 109.387C85.14 112.817 81 116.156 76.5 119.225C72.09 122.294 67.23 125.002 61.83 126.266L58.95 126.988L61.02 124.912C74.7 111.643 89.46 100.089 103.23 89.6186C117 79.1479 129.78 69.7603 139.77 61.456C124.83 72.1975 104.94 86.5496 89.37 98.9158C87.39 100.45 85.59 101.985 83.79 103.429C81.99 104.873 80.28 106.318 78.66 107.671C77.04 109.025 75.51 110.199 74.07 111.463C72.63 112.636 71.37 113.809 70.2 114.802C69.03 115.795 67.95 116.698 66.96 117.42C66.06 118.232 65.25 118.864 64.53 119.316C63.18 120.309 62.37 120.76 62.28 120.399C62.55 119.225 70.56 111.011 81.09 102.256C91.53 93.4999 104.31 84.1124 112.68 78.3355C126.72 68.5869 139.95 59.2896 152.37 49.7216C164.7 40.1535 176.22 30.405 186.48 20.0245C188.01 21.8298 189.54 23.5448 190.98 25.3501C181.62 32.3908 172.44 39.3412 163.35 46.2013C158.85 49.7216 154.17 52.9711 149.58 56.2206C144.99 59.4702 140.4 62.81 135.81 66.0595L128.88 70.9338L125.46 73.3709L121.95 75.7178C117.27 78.7868 112.5 81.9461 107.73 85.0151C102.96 88.0841 98.19 91.1531 93.33 94.1318C90.9 95.6663 88.38 97.1105 85.95 98.5548C84.24 99.5477 81.72 100.992 79.2 102.436Z" fill="#BE0411"/>
<path d="M179.91 38.258C185.4 34.1961 190.08 30.7661 193.86 27.8776C190.62 24.1768 187.56 20.5662 184.5 16.9556C182.34 19.0317 180.45 20.9272 178.65 22.7325C176.94 24.4476 175.23 25.9821 173.79 27.4263C170.82 30.3148 168.39 32.4811 166.41 34.4669C162.36 38.3483 159.75 40.8757 156.87 43.6739C151.02 49.1801 143.73 55.6791 118.26 74.0931C121.41 71.0241 115.92 74.1834 107.37 79.9603C98.82 85.7373 87.21 94.2221 78.12 101.804C76.5 103.249 74.79 104.783 73.08 106.318C71.37 107.852 69.75 109.477 68.04 111.011C67.14 111.824 66.33 112.636 65.43 113.358C64.53 114.171 63.72 114.983 62.91 115.795C61.2 117.42 59.49 119.135 57.78 120.76L41.58 136.376L63.54 131.231C68.04 130.147 71.91 128.252 75.42 126.176C78.93 124.1 81.99 121.843 84.96 119.677C90.81 115.164 95.85 110.741 100.35 107.13C100.98 106.679 101.61 106.227 102.15 105.776C102.69 105.415 103.23 105.054 103.68 104.783C104.58 104.151 105.3 103.79 105.84 103.519C106.92 102.978 107.19 103.068 106.56 103.79C105.93 104.512 104.4 105.776 101.79 108.033C99.18 110.289 95.49 113.539 90.27 117.871C86.67 120.579 82.89 123.378 78.66 125.995C74.43 128.613 69.66 131.14 63.81 132.494L37.17 138.723L56.79 119.767C76.59 100.631 99.63 83.3904 122.04 66.6012C144.45 49.8119 166.32 33.2935 183.96 16.5043C187.38 20.4759 190.8 24.4476 194.13 28.4192C189.36 31.759 184.59 35.0988 179.91 38.258Z" fill="#BE0411"/>
<path d="M124.74 68.6771C139.41 58.2064 144.45 55.5888 149.31 52.9711C151.74 51.6171 154.17 50.3534 157.77 48.0065C161.37 45.6597 166.05 42.2296 173.07 36.8137C167.49 41.8685 163.53 44.8473 157.59 48.9092C151.65 52.8808 143.73 57.9357 130.23 67.4134L145.26 55.7693L124.74 68.6771Z" fill="white"/>
<path d="M105.12 100.902C107.46 99.3671 110.25 97.6521 113.31 95.7565C116.46 93.9513 119.88 92.0557 123.39 90.0699C126.99 88.1743 130.77 86.0982 134.55 84.1124C136.44 83.1195 138.33 82.1266 140.22 81.1337C142.11 80.1408 143.91 79.1478 145.8 78.1549C153.09 74.2736 159.75 70.3922 164.61 67.3232C165.87 66.6011 166.95 65.9692 167.94 65.3373C168.93 64.7055 169.83 64.1639 170.55 63.7126C171.99 62.8099 172.98 62.3586 173.25 62.3586C174.69 61.2754 174.33 61.9073 174.96 61.6365C175.23 61.5462 175.77 61.1852 176.94 60.3728C177.39 60.0117 178.02 59.5604 178.74 58.9286C179.1 58.6578 179.55 58.2967 180 57.9357C180.45 57.5746 180.99 57.2135 181.62 56.7622C181.17 57.033 180.63 57.3941 180.09 57.7551C179.55 58.1162 179.01 58.5675 178.47 58.9286C177.3 59.8312 175.95 60.8241 174.51 61.9073C171.54 64.1639 168.21 66.7816 164.43 69.1285C162.54 70.3019 160.65 71.6559 158.67 72.8293C156.69 74.0028 154.62 75.1762 152.64 76.4399C150.57 77.7036 148.5 78.7868 146.43 79.87C144.36 80.9531 142.29 82.1266 140.22 83.2098C136.08 85.2858 132.12 87.4522 128.34 89.3477C126.45 90.3407 124.65 91.2433 122.85 92.146C121.14 93.0486 119.43 93.861 117.9 94.6734C116.37 95.4857 114.84 96.2079 113.49 96.93C112.14 97.6521 110.97 98.284 109.89 98.8255C107.91 99.8184 106.2 100.541 105.12 100.902Z" fill="#BE0411"/>
<path d="M103.59 93.5C98.55 97.5619 93.51 101.534 87.93 106.227C85.14 108.574 82.17 111.102 79.02 113.81C77.49 115.164 75.87 116.608 74.16 118.142C73.35 118.864 72.45 119.677 71.64 120.489C70.83 121.302 69.93 122.114 69.03 122.926C78.03 113.9 89.55 103.158 103.59 93.5Z" fill="white"/>
<path d="M129.24 83.1195C126.99 83.6611 131.22 81.224 136.71 78.2453C142.2 75.2665 148.95 71.7462 151.74 69.9409C151.74 69.9409 152.46 69.4896 153.63 68.8577C154.71 68.2259 156.33 67.4135 157.77 66.5109C160.74 64.7056 163.62 62.9003 163.62 62.9003C153.09 70.7533 138.78 78.6966 129.24 83.1195Z" fill="#BE0411"/>
<path d="M111.24 100.36C104.49 105.325 102.87 106.498 103.59 105.686C104.31 104.873 107.46 102.165 110.52 99.638C116.55 94.5831 122.04 89.9796 106.11 101.985L124.2 87.8133L132.03 84.293C132.03 84.293 130.77 85.2859 128.79 86.8204C126.81 88.3549 124.29 90.3407 121.68 92.3265C116.46 96.2982 111.24 100.36 111.24 100.36Z" fill="#BE0411"/>
<path d="M70.38 132.043C70.11 132.314 69.84 132.675 69.48 132.946L77.22 143.326C81.09 140.889 85.14 138.452 90.09 135.744C92.52 134.39 95.13 132.855 98.01 131.14C100.89 129.516 104.04 127.71 107.64 125.724L99.99 131.14C98.73 131.953 97.38 132.765 95.85 133.668C95.13 134.119 94.32 134.48 93.51 134.931C92.7 135.383 91.8 135.834 90.9 136.285C87.21 138.181 82.8 140.347 77.4 143.416L69.66 132.946C69.75 132.675 70.02 132.314 70.38 132.043Z" fill="#BE0411"/>
<path d="M107.1 107.04C100.89 112.185 98.1 114.171 95.85 115.705C93.6 117.24 91.8 118.142 87.75 121.301C88.83 120.218 91.35 118.142 94.32 115.705C97.38 113.358 100.8 110.74 103.77 108.664C109.71 104.422 113.49 101.985 107.1 107.04Z" fill="#BE0411"/>
<path d="M166.41 68.3162C154.89 77.9745 129.15 94.0416 104.67 109.567C110.79 105.686 116.01 102.346 120.78 99.0964C125.55 95.8469 129.96 92.9584 134.37 89.8894C138.87 86.8204 143.37 83.6612 148.59 80.2311C153.72 76.7108 159.48 72.8294 166.41 68.3162Z" fill="#BE0411"/>
<path d="M53.01 79.87C50.67 81.6753 48.06 83.4805 45.09 85.2858C43.56 86.1885 41.94 87.0009 40.14 87.723C38.34 88.4451 36.27 89.077 34.02 89.438L1.89 94.4026L27.9 74.2736C31.23 71.7461 34.38 69.2187 37.26 66.8719C40.05 64.4347 42.57 62.1781 44.64 60.3728L38.88 64.3444L36.09 66.7816L33.3 69.0382L27.54 73.732L0 95.9371L34.2 90.1601C36.54 89.7991 38.61 89.077 40.41 88.2646C42.21 87.4522 43.83 86.5495 45.27 85.6469C48.24 83.8416 50.76 81.8558 53.01 79.87Z" fill="#BE0411"/>
<path d="M64.26 94.5832C66.51 92.6876 67.5 91.785 67.41 91.6044C67.32 91.4239 66.15 91.9655 64.26 93.1389C62.37 94.3124 59.58 95.9371 56.25 98.0132C53.01 100.18 49.23 102.617 45.18 105.325L35.37 93.5C39.15 90.1602 43.2 86.5496 47.34 82.939C67.23 64.4348 87.03 44.6668 106.74 25.4405C109.62 29.7732 112.5 34.1961 115.47 38.5288C107.1 42.4102 99 46.7429 91.17 51.2562C91.17 51.2562 90.09 51.9783 88.38 53.1517C87.57 53.6933 86.58 54.3251 85.59 55.0473C84.6 55.7694 83.52 56.5818 82.44 57.3941C81.36 58.2065 80.28 58.9286 79.29 59.6508C78.3 60.3729 77.4 61.095 76.59 61.7268C75.06 62.9906 73.98 63.8029 73.98 63.8029C75.33 62.81 76.77 61.9074 78.3 60.8242C79.74 59.8313 81.36 58.8384 82.89 57.8455C86.04 55.7694 89.46 53.8738 92.97 51.7977C100.08 47.8261 107.91 43.8545 116.19 40.1536C112.59 35.0085 108.99 29.5926 105.39 24.1768C82.17 45.8403 56.07 70.4825 33.84 91.9655L46.35 107.04C49.41 104.873 52.47 102.707 55.35 100.541C56.79 99.4575 58.32 98.4646 59.85 97.4716C61.38 96.569 62.82 95.5761 64.26 94.5832Z" fill="#BE0411"/>
<path d="M82.44 71.6559C69.39 80.0506 53.64 89.2576 40.68 99.2769L40.5 99.0964C49.14 90.5213 57.06 82.6682 63.18 76.9816C55.44 84.2027 46.98 92.146 40.05 98.6451L41.04 99.9088C51.93 92.146 62.91 85.3762 72.72 79.2382C75.15 77.7037 77.49 76.1692 79.74 74.6347C81.99 73.1904 84.15 71.656 86.31 70.4825C90.54 67.9551 94.41 65.6985 97.83 63.7127C99 62.81 96.66 63.9835 93.24 65.7887C91.53 66.6914 89.64 67.7746 87.66 68.8577C86.67 69.3993 85.77 69.9409 84.87 70.3922C83.97 70.663 83.16 71.2046 82.44 71.6559Z" fill="white"/>
<path d="M49.5 48.6384C62.82 39.5217 78.12 29.3218 94.14 18.49C90.09 13.345 86.04 8.1096 81.9 2.78399C59.49 22.8227 35.64 44.3057 14.85 64.525L26.28 79.2382C30.6 76.1692 34.65 73.1002 38.7 70.1214C33.3 73.6417 29.34 76.1692 25.74 78.4258L15.48 65.2471C23.94 58.026 29.79 53.2419 49.59 35.6403C39.69 46.3818 28.53 56.2207 16.56 66.5108L24.75 77.0718C36.54 69.5798 48.96 61.9073 61.74 53.2419C39.24 67.8648 67.77 47.1942 86.67 34.1961C92.07 30.6758 97.83 26.7944 104.13 22.6422C101.52 19.6635 98.73 16.6847 96.03 13.6157C78.84 33.6545 55.53 56.5817 29.25 76.0789L33.84 87.362C37.35 86.8204 40.23 85.5567 42.75 84.1124C45.27 82.6682 47.43 81.1337 49.59 79.5089C51.66 77.8842 53.55 76.2594 55.44 74.6347C57.24 73.0099 59.04 71.5657 60.84 70.1214L63.54 67.8648C64.44 67.1427 65.43 66.4206 66.33 65.6984C67.23 64.9763 68.13 64.2542 69.12 63.6224L70.47 62.5392L71.91 61.5463C73.8 60.1923 75.69 58.8383 77.49 57.5746C79.38 56.3109 81.27 55.0472 83.16 53.8738C84.78 52.7003 86.76 51.5269 88.92 50.0827C90 49.3606 91.17 48.6384 92.43 47.9163C93.69 47.1942 94.95 46.4721 96.3 45.75C101.61 42.681 107.91 39.612 114.48 36.6332C112.41 33.474 110.25 30.3147 108.18 27.0652C84.87 49.0898 58.32 74.0931 65.43 69.6701C52.02 82.5779 44.19 89.3478 37.08 95.3955L43.65 103.249C47.34 100.992 50.76 98.9158 54.72 96.4787C56.7 95.3053 58.86 94.1318 61.11 92.7778C63.45 91.4239 65.88 89.8894 68.67 88.2646C71.46 86.3691 74.16 84.5638 76.86 82.6682C79.56 80.7727 82.26 78.9674 84.87 77.1621C85.5 76.7107 86.22 76.2594 86.85 75.8081L88.92 74.5444C90.27 73.732 91.62 72.9196 92.97 72.1072C95.76 70.3922 98.55 68.7674 101.34 67.0524C104.22 64.7958 107.1 62.6294 109.98 60.4631C112.77 58.387 115.56 56.3109 118.26 54.2348C123.75 50.0827 129.33 46.0208 134.82 41.9589C145.89 33.9253 156.87 25.982 167.94 17.8582C164.43 14.0671 160.83 10.1857 157.32 6.39458C150.03 13.9768 142.74 21.6493 135.36 29.5926L145.71 43.3128C157.68 37.8067 169.83 31.9395 182.43 25.7112C179.28 20.7467 175.95 15.6016 172.71 10.5467C164.07 17.7679 155.25 25.3502 146.25 33.3837C147.87 31.1271 140.4 36.8138 130.95 44.4863C129.78 45.4792 128.7 46.4721 127.53 47.465C126.36 48.4579 125.19 49.3605 124.02 50.3535C122.85 51.3464 121.59 52.3393 120.42 53.2419C119.16 54.1446 117.99 55.1375 116.82 56.0401C111.96 59.6507 107.37 62.9002 103.95 65.2471C97.11 70.0312 87.84 76.1692 78.03 83.2098C73.08 86.7301 68.13 90.5212 63.18 94.5831C58.32 98.5548 53.64 102.887 49.41 107.13L60.84 121.663C82.98 107.31 99.36 96.1176 90 100.27C81.9 104.603 71.19 111.372 59.31 119.135L51.3 108.935C55.71 104.512 60.57 99.999 65.7 95.7566C70.83 91.5141 76.14 87.4522 81.63 83.5709C92.52 75.8081 103.41 68.6772 113.31 62.2684C116.64 60.0118 119.34 58.2968 121.41 56.7623C123.48 55.318 125.01 54.2348 126.09 53.5127C128.16 52.0685 128.43 52.1588 127.26 53.3322C126.63 53.8738 125.73 54.7764 124.47 55.7693C123.21 56.8525 121.68 58.1162 119.88 59.4702C116.28 62.2684 111.69 65.6984 106.56 69.309C96.3 76.6205 84.06 84.8346 74.79 92.146C72.45 93.9513 70.38 95.7566 68.4 97.2911C66.51 98.9158 64.89 100.36 63.54 101.624C60.84 104.151 59.4 105.866 59.49 106.227C62.91 102.887 66.06 100.721 71.1 97.2008C76.14 93.6805 83.25 88.8965 94.95 80.3213C82.44 89.2575 77.76 93.3194 77.13 94.1318C76.5 95.0345 80.01 92.7778 84.33 90.1602C88.65 87.5425 93.78 84.3832 96.3 83.1195C98.82 81.8558 98.64 82.4877 92.34 87.2717C107.01 77.6134 117.81 70.5727 125.82 64.7055C129.87 61.8171 133.2 59.1994 136.17 56.8525C137.61 55.6791 138.96 54.5959 140.22 53.603C141.48 52.6101 142.74 51.7074 143.91 50.8048C153.27 43.8544 159.39 39.8828 174.15 29.7731C177.48 26.9749 180.45 24.4475 182.7 22.4617L175.5 11.1786C149.85 24.5378 158.22 22.5519 148.86 28.2386C146.07 29.6829 143.28 31.1271 140.58 32.4811C141.75 34.0156 142.92 35.5501 144 36.9943C151.29 28.5997 158.4 20.7467 165.33 13.2547L161.37 9.01225C139.77 25.3502 119.52 39.612 99 56.1304C102.33 52.7003 103.23 51.4366 102.24 51.7074C101.7 51.888 100.8 52.4296 99.36 53.2419C98.64 53.6933 97.83 54.2348 97.02 54.8667C96.57 55.1375 96.12 55.4985 95.58 55.8596C95.13 56.1304 94.41 56.672 94.32 56.672C94.23 56.672 94.23 56.7623 94.05 56.7623C93.87 56.8525 93.6 56.9428 93.42 57.1233C92.97 57.3941 92.61 57.5746 92.16 57.8454C91.26 58.2968 90.36 58.8383 89.37 59.3799C87.48 60.4631 85.41 61.6365 83.16 62.9002C82.08 63.5321 80.91 64.1639 79.74 64.8861C78.66 65.6082 77.49 66.3303 76.32 67.0524C73.98 68.5869 71.55 70.1214 69.03 71.7462C58.95 78.0647 47.34 85.2859 36.36 93.2292C39.33 96.8398 42.3 100.45 45.27 103.971C55.44 94.3123 65.25 84.9248 73.08 77.4329C109.53 43.1323 93.24 55.0472 114.75 33.9253L110.43 27.4262C107.91 28.5997 105.03 30.0439 101.61 31.6687C98.19 33.3837 94.23 35.3695 89.91 37.8969C85.68 39.8828 83.97 40.7854 83.88 40.5146C83.88 40.4244 84.24 40.0633 84.96 39.5217C85.68 38.9801 86.76 38.258 88.02 37.3554C93.15 33.835 102.51 28.7802 109.53 25.2599L116.46 35.6403C109.08 43.3128 105.39 47.6455 117.72 36.9943L108.81 23.5449C108.72 23.5449 108.63 23.6351 108.45 23.6351C108.45 23.6351 106.74 24.4475 104.22 25.7112C102.96 26.3431 101.52 27.0652 99.99 27.8776C98.46 28.6899 96.84 29.5926 95.13 30.4952C94.32 30.9466 93.51 31.3979 92.7 31.8492C91.89 32.3005 91.17 32.7519 90.36 33.2032C88.83 34.1058 87.48 34.9182 86.22 35.6403C85.05 36.3624 84.06 36.9943 83.34 37.4456C82.62 37.8969 82.26 38.1677 82.26 38.1677C74.43 43.6739 67.95 49.18 61.2 55.1375C59.58 56.672 57.87 58.1162 56.16 59.741C54.45 61.3657 52.83 62.9905 51.03 64.7055C47.52 68.1356 44.1 71.7462 39.96 74.7249C37.71 76.1692 34.92 77.6134 32.4 77.9744L34.56 83.3903C43.83 76.5302 53.1 68.8577 53.73 68.948C48.78 73.1904 45.54 76.0789 43.74 77.8842C41.94 79.5992 41.58 80.1408 42.57 79.6895C43.11 79.5089 43.92 78.9674 45.09 78.2452C46.26 77.5231 47.7 76.5302 49.41 75.2665C51.12 74.0028 53.1 72.5586 55.35 70.9338C57.51 69.2188 60.03 67.233 62.64 65.0666C67.23 60.6436 70.02 57.7552 72.27 55.4986C74.43 53.1517 75.96 51.4366 77.94 49.0898C71.19 54.7764 67.59 57.3038 66.6 57.7552C65.61 58.2065 67.23 56.5817 70.56 53.4225C73.8 50.1729 78.84 45.4792 84.6 39.612C90.36 33.835 96.75 26.8847 103.14 19.483L98.82 14.6087C81.9 25.982 64.17 38.0775 53.91 45.9305C39.51 56.3109 28.53 64.0737 19.98 69.8506C20.7 70.7533 21.42 71.7462 21.96 72.378C56.88 40.9659 52.56 50.3535 92.43 14.5184L85.41 5.49193C78.3 10.276 69.75 16.1432 59.49 23.3643C76.68 14.2476 53.55 30.2244 25.92 49.2703C27.18 50.8048 28.44 52.249 29.7 53.7835C45.81 36.9943 63.81 18.3998 73.35 7.74855C74.07 7.02643 74.79 6.30431 75.33 5.67246L72.9 1.97161C61.65 6.12378 53.73 10.0954 46.8 13.9768C39.96 17.7679 34.2 21.4688 27.81 26.2528C29.79 27.9678 31.86 29.6829 33.84 31.3979C35.28 29.3218 36.72 27.1554 38.34 24.8086C38.88 23.7254 39.69 22.4617 40.5 20.9272C40.95 20.2051 41.4 19.3927 41.85 18.5803C42.03 18.2192 42.3 17.7679 42.48 17.4069C42.66 17.1361 42.75 16.8653 42.93 16.5945C46.44 13.6157 50.49 10.276 53.82 7.47775C57.33 4.49902 60.03 2.06187 60.84 1.15923C58.68 2.06187 55.8 3.50611 52.2 5.58219C50.4 6.5751 48.42 7.74855 46.26 9.10252C45.18 9.73437 44.1 10.4565 42.93 11.1786C41.76 11.9007 40.59 12.6228 39.24 13.5255C37.62 15.6918 35.91 18.0387 34.02 20.4759C32.22 22.913 30.33 25.5307 28.35 28.2386L31.86 31.2174C37.53 27.2457 44.01 23.1838 51.3 19.3927C58.59 15.6918 66.78 12.2618 75.69 9.6441C73.8 6.66537 71.64 3.41584 69.48 0.0760498C54.99 13.345 38.52 28.6899 20.97 45.2084L32.85 59.3799C36.99 56.8525 41.49 54.0543 45.99 51.3464C47.88 49.9924 49.59 48.7287 49.5 48.6384Z" fill="#BE0411"/>
</svg>
