<svg width="139" height="125" viewBox="0 0 139 125" fill="none" xmlns="http://www.w3.org/2000/svg">
<path d="M82.7938 85.9917C83.9649 84.6425 85.6043 83.1174 87.4195 81.7096C89.2346 80.3017 91.2254 78.9526 93.0405 77.7207C96.6708 75.3157 99.2472 73.7906 98.486 74.7878L100.125 74.2012C98.6616 75.1984 96.0853 77.0755 93.1577 79.1286C90.23 81.1816 87.3609 83.2934 85.253 85.1118C83.1451 86.9302 81.9155 88.4554 81.3885 88.866C81.1543 89.1006 81.0372 88.9833 81.2129 88.5727C81.33 88.3381 81.4471 88.0448 81.6813 87.6341C81.7984 87.3995 81.9741 87.1649 82.1497 86.9302C82.3839 86.5783 82.5596 86.285 82.7938 85.9917Z" fill="#BE0411"/>
<path d="M79.0464 85.1117C79.6319 84.4665 80.1003 83.9972 80.4517 83.6452C80.803 83.2933 81.0957 83.0586 81.2714 82.9413C81.6227 82.648 81.6227 82.7653 81.4471 83C81.0957 83.5279 80.1003 84.7598 79.8661 85.2877C79.6319 85.581 79.3977 85.8743 79.1635 86.1676C78.9293 86.4609 78.6951 86.7542 78.5194 87.0475L78.1681 87.5167C77.9924 87.7514 77.8753 87.986 77.7582 88.2207C77.524 88.7486 77.2898 89.2765 77.1141 89.7458L76.9385 90.1564C76.8799 90.2737 76.8799 90.4497 76.8214 90.6257L76.5872 91.5642L76.353 92.4441L76.1187 93.3827C75.826 94.6732 75.5918 95.9637 75.3576 97.1955C75.299 97.1955 75.299 97.2542 75.2405 97.2542C74.7135 97.3128 74.772 97.0782 75.1233 96.433C75.2405 95.6704 75.3576 94.6145 75.5918 93.5C75.7089 92.9134 75.826 92.3268 75.9431 91.7402C76.1187 91.1536 76.2359 90.567 76.4115 89.9804C76.4701 89.6871 76.5872 89.3938 76.7043 89.1592L77.0556 88.3966C77.2313 87.8687 77.5826 87.3994 77.8168 86.9888C77.9924 86.6369 78.2267 86.2849 78.4609 85.9916C78.6951 85.6983 78.8707 85.405 79.0464 85.1117Z" fill="white"/>
<path d="M76.88 77.0167C76.88 77.0167 76.7043 77.1341 76.4701 77.3687C76.2359 77.6033 75.8846 77.838 75.5918 78.1313C75.299 78.4245 74.9477 78.7179 74.7135 78.9525C74.4793 79.1871 74.3036 79.3631 74.3036 79.3631C75.5332 78.1313 77.0556 76.6648 78.578 75.4329C80.1004 74.1424 81.6227 73.0279 82.7938 72.0894C83.028 72.148 82.0326 73.0866 80.3931 74.6117C78.7537 76.0782 76.4701 78.1899 74.1865 80.7123C74.5378 80.067 75.826 78.4832 76.7629 77.486C77.2313 76.9581 77.5826 76.6061 77.6412 76.4888C77.8168 76.3715 77.5826 76.4301 76.88 77.0167Z" fill="#BE0411"/>
<path d="M63.5299 36.3073C63.3542 36.9525 63.4713 37.3045 63.9398 37.1871C64.174 37.1285 64.5253 36.9525 64.9937 36.7179C65.4621 36.4246 66.0477 36.014 66.8089 35.5447C69.7951 33.4329 74.3622 30.7346 79.6905 28.3883C79.6905 28.3883 78.9879 29.3268 78.2852 30.324C77.6412 31.3212 76.9971 32.2598 76.9971 32.2598C75.0648 33.257 72.7227 34.7235 70.4391 36.7179C70.1464 36.9525 69.8536 37.2458 69.6194 37.4804C69.3852 37.7151 69.2095 37.891 68.9753 38.1257C68.7411 38.3603 68.5069 38.595 68.3312 38.8296C67.9214 39.3575 67.4529 39.8855 67.0431 40.472C66.8089 40.7653 66.6332 41 66.399 41.2933L66.0477 41.7039L65.7549 42.1732C64.9352 43.4637 64.0569 44.7542 63.1786 46.162C62.7687 46.8659 62.3003 47.5112 61.8904 48.2151C61.4805 48.8603 61.0707 49.5642 60.7194 50.2095L60.3095 49.9162C60.3095 49.9162 60.2509 49.9162 60.2509 49.8575L60.1924 49.7402L60.0753 49.5056L59.8996 49.0363C59.6069 48.391 59.3726 47.7458 59.0799 47.1005C58.5529 45.81 57.9674 44.5195 57.4404 43.229C56.3279 40.5894 55.2154 37.9497 53.9272 35.486L53.693 35.0167L53.5174 34.7235L53.2246 34.1369C52.9904 33.7262 52.8147 33.3743 52.5805 32.9637C52.1706 32.2011 51.7022 31.4385 51.2923 30.7346C50.4141 29.2681 49.4772 27.919 48.5404 26.6871C46.8423 24.8687 48.6575 27.2737 49.5943 29.0335C50.1213 29.9134 50.4141 30.6173 50.2384 30.4413C50.1213 30.324 49.8871 30.0307 49.4187 29.4441C48.9502 28.8575 48.3061 27.919 47.3107 26.7458C46.6667 25.514 47.6621 25.9246 46.0226 23.8715C43.9732 21.9357 42.568 21.1732 41.3383 20.5866C40.1087 20.0586 39.1133 19.7654 37.8252 19.4134C36.537 19.0614 34.839 18.5335 32.2041 18.2989C29.6278 18.1229 25.9975 18.0642 22.3672 20.9972C22.3672 20.9972 22.0744 21.2318 21.5475 21.5838C21.3133 21.7598 21.079 21.9944 20.7863 22.2877C20.4935 22.5223 20.2008 22.8743 19.9665 23.1676C19.8494 23.3436 19.6738 23.4609 19.5567 23.6369C19.4396 23.8128 19.3225 23.9888 19.2054 24.1648C19.0882 24.3408 18.9711 24.5167 18.854 24.6341C18.7369 24.81 18.6784 24.9274 18.5613 25.1033C18.3856 25.3966 18.2685 25.6313 18.1514 25.8073C18.0343 25.9832 17.9757 26.1005 17.9757 26.1005C16.629 29.5614 16.3948 33.7262 16.8047 37.7151C17.0389 39.7681 17.4488 41.7039 18.0343 43.757C18.1514 44.2849 18.3271 44.7542 18.5027 45.2821C18.6784 45.81 18.7955 46.2793 18.9711 46.8072L19.5567 48.2737L19.8494 49.0363L20.2008 49.7402C21.9573 53.6117 24.0652 57.3072 26.7001 60.6508C29.335 63.9944 32.3798 67.0447 35.7173 69.743C36.5956 70.3883 37.3568 71.0922 38.2351 71.6788L40.8699 73.4972C41.8068 74.0838 42.7436 74.6117 43.6805 75.1983C44.6173 75.7262 45.5542 76.3128 46.5496 76.8408C48.5404 77.9553 50.5897 79.0698 52.5805 80.1843C53.6345 80.7709 54.6299 81.2989 55.6838 81.9441L58.7871 83.8799L60.3095 84.8771C60.8365 85.229 61.3634 85.581 61.8319 85.9916C62.8273 86.7542 63.8227 87.5167 64.8181 88.338C66.7503 89.9804 68.624 91.8575 70.2635 93.9106C71.0832 94.9665 71.8444 96.081 72.5471 97.1955C72.8984 97.7821 73.2497 98.3687 73.5424 99.0139L74.0109 99.8938L74.128 100.246L74.1865 100.422L74.2451 100.539L74.3036 100.715C74.3622 100.832 74.3622 100.95 74.4207 101.067L74.5964 101.771C74.7721 102.592 74.9477 103.472 74.8892 104.411C74.8892 104.587 74.8892 104.763 74.8306 104.997L74.7721 105.29V105.349V105.408V105.29C74.8306 104.997 74.9477 104.763 75.0063 104.469C75.1819 103.941 75.4161 103.355 75.7089 102.768C75.7089 102.709 75.7675 102.592 75.7675 102.475C75.826 102.064 75.9431 101.654 76.0602 101.302C76.1188 101.126 76.1773 100.95 76.2359 100.774C76.2359 100.715 76.2944 100.598 76.353 100.539L76.4115 100.422C76.4115 100.422 76.4115 100.422 76.4701 100.363L76.6457 100.07C77.1727 99.3072 77.7583 98.486 78.3438 97.6648C78.9293 96.9022 79.4563 96.257 80.0418 95.4944C81.2129 93.9693 82.501 92.3268 83.9649 90.6843C84.3162 90.2737 84.7261 89.8631 85.0774 89.3938C85.4287 88.9832 85.8386 88.5726 86.2484 88.1033L87.478 86.8128L88.8248 85.581C89.2932 85.1704 89.7616 84.7598 90.2886 84.4078C90.757 84.0559 91.284 83.6452 91.7524 83.2933C92.5721 82.7067 93.3919 82.0614 94.1531 81.4748C95.734 80.3017 97.3149 79.1285 98.7787 78.0139C99.5399 77.486 100.184 76.8408 100.887 76.3128C101.531 75.7262 102.175 75.1983 102.819 74.6704L103.404 74.905C104.107 74.2011 104.868 73.4972 105.688 72.7933C106.098 72.4413 106.566 72.0894 106.976 71.6788C107.386 71.2681 107.854 70.8575 108.264 70.4469C110.079 68.8045 112.07 67.1033 114.12 65.3436C116.11 63.5251 118.101 61.5894 120.092 59.7709C120.326 59.5363 120.56 59.3017 120.795 59.067C121.029 58.8324 121.205 58.5978 121.439 58.4218C121.849 57.9525 122.258 57.5419 122.668 57.0726C123.43 56.1341 124.191 55.3128 124.835 54.3743C124.835 54.3743 125.186 54.0223 125.655 53.4357C126.123 52.8491 126.708 52.0279 127.353 51.2653C127.938 50.4441 128.524 49.6229 128.933 49.0363C129.168 48.743 129.285 48.4497 129.402 48.2737C129.519 48.0978 129.578 47.9804 129.578 47.9804C129.87 47.6871 129.929 47.8045 129.812 48.2151C129.753 48.391 129.636 48.6843 129.519 49.0363C129.343 49.3883 129.168 49.7402 128.933 50.1508C128.114 51.8519 126.533 54.1983 124.952 56.3687C124.542 56.8966 124.132 57.4246 123.781 57.8938C123.371 58.3631 122.961 58.8324 122.61 59.3017C121.907 60.1815 121.146 60.9441 120.736 61.5307C119.799 62.7039 119.741 63.0559 121.38 61.9413C121.79 61.5307 122.258 61.1788 122.668 60.7681C123.078 60.3575 123.43 60.0056 123.781 59.595C124.542 58.8324 125.186 58.0112 125.889 57.1899C126.591 56.4274 127.118 55.5475 127.762 54.7262C128.348 53.905 128.875 53.0838 129.402 52.2626C131.451 48.919 132.915 45.5754 133.969 42.1732C135.023 38.7709 135.609 35.4274 135.784 32.0838C135.96 28.7402 135.726 25.338 134.847 21.8771C133.852 18.5922 132.447 16.4218 131.334 14.8966C131.041 14.5447 130.807 14.1341 130.514 13.8408C130.222 13.5475 129.987 13.2542 129.695 12.9609C129.226 12.4329 128.699 12.0223 128.231 11.6117C127.997 11.4357 127.762 11.2598 127.528 11.0251C127.294 10.8492 127.06 10.6732 126.826 10.5559C126.357 10.2626 125.889 9.85194 125.362 9.55865C124.249 8.9134 122.961 8.09217 121.029 7.21228C119.916 6.97764 120.502 7.38826 121.146 7.91619C121.849 8.38546 122.551 9.08937 122.024 9.14803C121.849 9.03071 121.614 8.9134 121.439 8.79608C121.205 8.67876 121.029 8.6201 120.853 8.50278C120.443 8.3268 120.033 8.09217 119.682 7.91619C119.272 7.74021 118.862 7.56423 118.511 7.38826C118.101 7.21228 117.75 7.0363 117.34 6.91898C116.579 6.62569 115.818 6.33239 115.056 6.15641C114.705 6.03909 114.295 5.92178 113.944 5.80446C113.593 5.68714 113.183 5.62848 112.831 5.56982C112.48 5.51116 112.129 5.39384 111.777 5.33518C111.426 5.27653 111.075 5.21787 110.724 5.15921C110.372 5.10055 110.021 5.04189 109.67 4.98323C109.318 4.92457 108.967 4.92457 108.674 4.86591C108.323 4.80725 108.03 4.80725 107.679 4.74859C107.327 4.74859 107.035 4.68993 106.683 4.68993C106.039 4.63127 105.395 4.63127 104.751 4.57261C99.7156 4.39664 95.7925 4.86591 92.0452 5.86312C88.2978 6.86032 84.7261 8.44412 80.8616 11.2011C80.3931 11.5531 79.9247 11.905 79.3977 12.3156C78.8708 12.6676 78.4609 13.1369 77.9339 13.5475C77.4655 13.9581 76.9385 14.4274 76.4115 14.8966C75.9431 15.3659 75.4161 15.8938 74.8892 16.4218C74.655 16.6564 74.3622 16.9497 74.128 17.243C73.8938 17.5363 73.601 17.8296 73.3668 18.1229C72.8398 18.7095 72.3128 19.2961 71.7859 19.9413C71.2589 20.5866 70.7319 21.2318 70.1464 21.9357L69.8536 22.2877L69.5609 22.6983C69.3852 22.9916 69.151 23.2262 68.9753 23.5195C68.5655 24.0475 68.1556 24.6341 67.7457 25.2207C67.6872 25.3966 67.3358 25.9246 66.8674 26.7458C66.3404 27.567 65.6964 28.6229 64.9352 29.8547C64.174 31.0866 63.2957 32.4944 62.4174 33.8436C61.949 34.5475 61.5391 35.31 61.0707 35.9553C60.8365 36.3073 60.6023 36.6592 60.4266 37.0112C60.2509 37.1871 60.0753 37.3631 59.8996 37.5391C58.9042 35.1341 57.9088 32.8464 57.6746 32.6704C57.5575 32.6117 57.6161 33.0223 57.9088 34.2542C58.0845 34.8408 58.2601 35.662 58.5529 36.6592C58.8457 37.5978 59.1384 38.7709 59.5483 40.1788C59.724 40.0028 59.8996 39.8855 60.0753 39.7095C60.1338 39.6508 60.2509 39.4748 60.368 39.3575C60.4851 39.2402 60.6023 39.0642 60.7194 38.8883C61.1878 38.3017 61.6562 37.5978 62.2417 36.8938C63.3542 35.3687 64.6424 33.6676 66.0477 31.6732C66.0477 31.6732 66.7503 30.6173 67.8628 28.9748C68.3898 28.2123 69.0339 27.2737 69.678 26.3352C70.0293 25.8659 70.322 25.338 70.6734 24.8687C70.849 24.6341 71.0247 24.3408 71.2003 24.1061C71.376 23.8715 71.5517 23.6369 71.7859 23.3436C72.5471 22.2877 73.3082 21.1732 73.8938 20.4693C74.4793 19.7067 74.8892 19.1788 74.8892 19.1788C74.8892 19.1788 75.1819 18.8855 75.7089 18.4162C76.1773 18.0056 76.88 17.419 77.524 16.8324C78.1681 16.2458 78.8708 15.7179 79.3392 15.3659C79.8662 14.9553 80.1589 14.7207 80.1589 14.7207C79.8076 15.0726 79.4563 15.4246 79.0464 15.7765C78.6366 16.1285 78.2852 16.4804 77.8754 16.9497C77.4655 17.3603 77.0556 17.7709 76.6457 18.2402C76.4701 18.4748 76.2359 18.6508 76.0017 18.8855C75.826 19.1201 75.5918 19.3547 75.4161 19.5894C74.5964 20.5279 73.7767 21.4665 73.0155 22.405C72.6056 22.933 72.1372 23.4609 71.7273 23.9888C71.0247 24.9274 70.3806 25.8073 69.7365 26.6871C69.0924 27.567 68.4483 28.4469 67.8628 29.2681C67.2773 30.0894 66.6918 30.9106 66.1648 31.6732C65.1108 33.1983 64.174 34.5475 63.4713 35.662C62.0075 37.891 61.3049 39.1229 61.7733 38.7123C61.422 39.1229 61.0121 39.5922 60.5437 40.1201C60.3095 40.4134 60.0753 40.648 59.8996 40.9413C59.6654 41.176 59.4897 41.3519 59.2555 41.5866C58.9628 40.648 58.7286 39.6508 58.3772 38.595C58.0845 37.5391 57.7332 36.4832 57.3818 35.31C56.6792 33.0223 55.918 30.7346 55.0983 28.2709C54.6299 27.1564 54.1614 26.1005 53.693 24.986C53.4588 24.4581 53.2246 23.8715 52.9318 23.3436C52.8147 23.1089 52.6391 22.8156 52.522 22.581L52.1706 21.9944C51.995 21.7598 51.8779 21.5251 51.7022 21.2318C51.5266 20.9972 51.3509 20.7626 51.2338 20.5279C50.8825 20.0586 50.5897 19.5307 50.1798 19.0614C47.4278 15.2486 43.5634 12.1397 40.2258 10.3799C39.816 10.1452 39.4061 9.96926 38.9962 9.79328C38.5864 9.61731 38.235 9.38267 37.8837 9.26535C37.1225 8.97206 36.4785 8.67876 35.8929 8.50278C35.3074 8.3268 34.839 8.09217 34.4291 7.97485C34.0778 7.85753 33.785 7.74021 33.6094 7.68155C33.3166 7.50558 33.4923 7.44692 34.2534 7.44692C34.6633 7.44692 35.2488 7.56423 36.01 7.68155C36.4199 7.74021 36.8298 7.79887 37.2982 7.97485C37.7666 8.09217 38.2936 8.20949 38.8791 8.38546C41.5726 9.9106 43.5634 11.5531 45.2028 13.0782C46.8423 14.6033 48.1305 16.0112 49.243 17.3603C49.8285 18.0642 50.3555 18.7095 50.8825 19.3547L51.6437 20.3519C51.8779 20.7039 52.1706 21.0559 52.4049 21.4078L52.5805 21.7011L52.6976 21.8184L52.8733 22.0531C53.1075 22.405 53.3417 22.757 53.5174 23.1676C53.9272 23.9302 54.3371 24.7514 54.747 25.5726C55.6253 27.0978 56.3279 29.0922 57.0891 30.9693C56.7963 30.0307 56.445 29.1508 56.1522 28.2123C55.9766 27.743 55.8595 27.2737 55.6838 26.8631L55.1568 25.6313C54.8055 24.81 54.4542 24.0475 54.1029 23.2262C53.9272 22.8743 53.693 22.4637 53.5174 22.1117L53.0489 21.2905C52.6391 20.4693 52.1121 19.7654 51.5851 19.0028C51.0581 18.2402 50.5312 17.5363 50.0042 16.8324C47.7792 14.0754 45.2614 11.6117 42.4509 9.61731L41.3969 8.97206L40.8699 8.6201L40.343 8.3268L39.2304 7.68155C38.8791 7.50558 38.4693 7.3296 38.1179 7.15362C37.3568 6.74301 36.5956 6.50837 35.8344 6.21507C35.4245 6.03909 35.0732 5.92178 34.6633 5.80446C34.2534 5.68714 33.9021 5.56982 33.4923 5.4525C30.389 4.63127 27.11 4.51396 23.9481 4.92457C22.3672 5.10055 20.8448 5.51116 19.3225 5.98044C17.8001 6.44971 16.3948 7.15362 15.0481 7.91619C13.7014 8.67876 12.4718 9.61731 11.3593 10.6145L10.5395 11.3771L10.1297 11.7877L9.77834 12.1983L9.0757 13.0782L8.43162 14.0167C8.19741 14.31 8.02175 14.662 7.84609 14.9553C7.67043 15.3073 7.43622 15.6005 7.26056 15.9525C6.90924 16.6564 6.55792 17.3017 6.26516 18.0056L5.85529 19.0614L5.44542 20.176C5.15266 20.8799 4.977 21.6424 4.80134 22.405C4.04015 25.4553 3.68883 28.5642 3.68883 31.6732C3.68883 31.6732 3.74739 32.1424 3.86449 32.7877C3.9816 33.4916 4.15726 34.3715 4.33292 35.2514C4.56713 36.1313 4.80134 37.0112 5.03555 37.5978C5.26976 38.243 5.38687 38.6536 5.38687 38.6536C4.977 38.9469 5.15266 42.1145 6.79214 46.4553C7.61188 48.6257 8.78294 51.0894 10.2468 53.6117C10.9494 54.9022 11.8277 56.1341 12.706 57.4246C13.5257 58.7151 14.5211 59.9469 15.458 61.2374C18.9711 65.3436 23.8896 70.2709 23.0113 68.7458C23.3041 68.9218 22.9527 68.5112 22.3087 67.7486C21.9573 67.338 21.5475 66.8687 21.0205 66.2821C20.4935 65.6955 19.908 65.1089 19.3225 64.3464C16.8047 61.5307 13.8185 57.4832 11.5349 53.7877C11.2422 53.3184 11.0079 52.8491 10.7152 52.4385C10.481 51.9693 10.2468 51.5586 10.0125 51.0894C9.54412 50.2681 9.13425 49.4469 8.78294 48.6843C8.43162 47.9804 8.19741 47.2765 7.96319 46.7486C7.78754 46.2207 7.61188 45.7514 7.55332 45.4581C7.31911 44.2262 7.84609 45.2234 10.7152 49.6815C12.3547 52.6732 14.3455 55.6648 16.4534 58.5391L18.0928 60.6508C18.6198 61.3547 19.2639 62 19.7909 62.7039C20.3764 63.4078 20.9034 64.1117 21.5475 64.757C22.133 65.4022 22.7771 66.0475 23.3626 66.7514C28.2225 71.9721 33.6679 76.6061 39.0548 80.8296C44.5002 85.0531 49.8871 88.8072 54.9226 92.2095C60.0167 95.6117 64.6424 98.662 68.5655 101.36C62.4759 97.9581 57.2647 94.9665 52.0535 91.8575C46.8423 88.7486 41.514 85.6396 35.3074 81.7095C30.2133 78.1313 25.3534 74.1424 20.8448 69.6843C16.3363 65.2849 12.2376 60.3575 8.66583 55.0195C5.21121 49.6815 2.34212 43.757 1.34672 37.4218C0.351317 31.0866 0.819741 24.4581 2.92765 18.4162C3.9816 15.3659 5.50397 12.5503 7.55332 10.0866C7.78754 9.79328 8.0803 9.49999 8.37306 9.20669L9.19281 8.3268L10.0711 7.56423L10.5395 7.15362L11.0079 6.80166L11.9448 6.09775L12.9402 5.4525C13.5843 4.98323 14.2869 4.63127 14.9895 4.27932C17.8001 2.75418 20.9034 1.75697 24.0067 1.34636C24.7679 1.2877 25.5876 1.11172 26.3488 1.11172C26.7587 1.11172 27.1685 1.05306 27.5199 1.05306H28.6909C29.5107 1.05306 30.2719 1.17038 31.033 1.17038L32.2041 1.34636C32.614 1.40502 32.9653 1.46368 33.3752 1.52234C39.6989 2.75418 45.3785 6.0391 49.9456 10.2626C52.2292 12.3743 54.2785 14.7793 56.0351 17.3017C56.5036 17.9469 56.9134 18.5922 57.3233 19.2374C57.499 19.5307 57.7332 19.824 57.9088 20.1173L58.4358 21.0559L58.9628 21.9357L59.4312 22.8743L59.8996 23.7542L60.3095 24.6341C60.368 24.9274 60.4266 25.3966 60.6023 25.9246C60.7194 26.5112 60.895 27.1564 61.0707 27.919C61.1292 28.0363 61.1292 28.2123 61.1878 28.3296L61.2463 28.5642V28.6229L61.3049 28.5642C61.4805 28.3883 61.5977 28.2123 61.7733 28.0363C62.1246 27.6257 62.4174 27.2151 62.7687 26.8631C63.4128 26.0419 64.1154 25.2793 64.701 24.5754C65.872 23.2849 66.6332 22.6397 65.7549 24.1648C66.1648 23.6955 66.6918 23.1089 67.2187 22.405C67.5115 22.0531 67.8043 21.7011 68.097 21.2905C68.2727 21.1145 68.3898 20.8799 68.5655 20.7039C68.6826 20.5279 68.8582 20.3519 68.9753 20.176C69.5609 19.4721 70.1464 18.7095 70.849 17.9469C71.4931 17.1843 72.1957 16.4218 72.8398 15.7179C75.5918 12.7262 78.578 10.3212 80.1589 9.67597C83.6135 6.80166 87.6537 4.39664 92.0452 2.81284C96.4366 1.22904 101.238 0.583788 106.098 0.642447C108.557 0.583788 110.899 0.877084 113.3 1.34636C115.701 1.81563 117.984 2.51954 120.209 3.45809C121.322 3.92736 122.376 4.4553 123.488 5.04189C124.542 5.68714 125.596 6.27373 126.533 6.97764C128.465 8.38546 130.339 9.96926 131.861 11.8464C134.964 15.4832 137.014 19.9413 137.775 24.5754C138.243 26.8631 138.243 29.2095 138.185 31.5559C138.009 33.9022 137.716 36.1899 137.072 38.419C135.96 42.8771 134.086 47.1005 131.861 50.8547C129.636 54.6676 127.001 58.1285 124.191 61.1201C126.064 59.7123 126.182 59.9469 125.245 61.2374C125.01 61.5894 124.718 62 124.308 62.4106C123.898 62.8212 123.488 63.3491 122.961 63.8771C121.966 64.9329 120.795 66.2234 119.448 67.5726C118.804 68.2179 118.101 68.9804 117.399 69.6257C116.637 70.2709 115.935 70.9748 115.174 71.6788C113.651 73.0866 112.129 74.4944 110.665 75.8436C107.62 78.4246 104.751 80.7123 103.053 82.3547C101.121 83.5279 98.8959 84.9357 96.5537 86.5782C95.9682 86.9888 95.3827 87.3994 94.7386 87.81C94.1531 88.2793 93.509 88.6899 92.9235 89.1592C92.3379 89.6285 91.7524 90.1564 91.1669 90.6843C90.5813 91.2123 90.0544 91.7989 89.4688 92.3855C87.2438 94.6732 85.253 97.2542 83.2622 99.7179C82.7353 100.304 82.2668 100.95 81.7984 101.595C81.33 102.24 80.8616 102.827 80.4517 103.472C79.6905 104.763 78.8708 105.936 78.2852 107.226C78.1096 107.813 77.4069 109.338 76.88 111.039C76.6458 111.567 76.4701 112.095 76.2944 112.564C76.1188 113.034 76.0017 113.444 75.8846 113.796C75.6504 114.5 75.5918 114.852 75.7675 114.735C76.0017 114.265 76.1773 113.796 76.353 113.385C76.5872 112.975 76.8214 112.564 77.0556 112.212C77.2313 111.743 77.4069 111.332 77.524 110.922C77.5826 110.687 77.6997 110.511 77.7583 110.277C77.8754 110.101 77.9339 109.925 78.051 109.69C78.4023 108.986 78.7537 108.282 79.0464 107.578C79.3392 106.874 79.7491 106.288 80.1004 105.701C80.4517 105.115 80.8616 104.528 81.2129 103.941C81.6227 103.413 82.0326 102.944 82.4425 102.416C82.8524 101.888 83.2622 101.36 83.7892 100.832C84.7846 99.7179 85.78 98.486 87.0096 97.1369C86.834 97.6648 86.3655 98.4274 85.78 99.3072C85.4872 99.7765 85.1359 100.246 84.7261 100.774C84.3162 101.302 83.8478 101.83 83.4379 102.416C83.028 103.003 82.5596 103.589 82.0326 104.235C81.9155 104.352 81.7399 104.645 81.6227 104.88C81.5056 105.115 81.33 105.349 81.2129 105.584C80.9201 106.053 80.6273 106.522 80.3346 106.992C80.2175 107.226 80.0418 107.461 79.8662 107.696C79.6905 107.93 79.632 108.223 79.4563 108.517C79.2221 109.045 78.9293 109.631 78.6951 110.159C78.4609 110.746 78.1681 111.274 77.9339 111.86C77.6997 112.506 77.4655 113.092 77.2313 113.737C76.9385 114.089 76.5872 114.441 76.2944 114.793C76.0602 115.204 75.826 115.556 75.5918 115.966L75.2405 116.553C75.1234 116.729 75.0063 116.964 74.9477 117.198C74.7721 117.609 74.5964 118.078 74.3622 118.489C73.601 120.249 73.074 122.184 72.5471 124.12C72.5471 124.12 72.9569 122.654 73.3668 121.187C73.601 120.366 73.8352 119.603 74.0109 119.017C74.0694 118.723 74.1865 118.43 74.2451 118.254C74.3036 118.078 74.3622 117.961 74.3622 117.961C74.0694 118.782 73.8938 119.603 73.6596 120.425C73.4253 121.246 73.1911 122.067 72.9569 122.947C72.8398 123.358 72.7227 123.768 72.6056 124.237L72.5471 124.531C72.5471 124.589 72.5471 124.531 72.5471 124.472V124.413V124.237L72.6642 123.592C72.7227 123.123 72.7813 122.712 72.8398 122.243C72.8398 121.774 72.8984 121.304 72.8984 120.894C72.9569 119.955 72.8984 118.958 72.8984 118.02C72.8984 117.55 72.8398 117.022 72.7813 116.553C72.7227 116.084 72.7227 115.556 72.6642 115.028C72.4299 112.975 72.0786 110.922 71.7273 108.986C71.5517 108.047 71.376 107.109 71.1418 106.229C71.0247 105.76 70.9661 105.349 70.849 104.88C70.7319 104.411 70.6148 104 70.4977 103.589C69.9707 101.947 69.0924 100.128 68.097 98.486C66.0477 95.2011 63.4128 92.3855 60.5437 90.0391C59.8411 89.4525 59.0799 88.8659 58.3187 88.338C57.5575 87.81 56.7963 87.3408 56.0351 86.8128C55.2739 86.3436 54.5128 85.8743 53.7516 85.3464C52.9904 84.8771 52.2292 84.4665 51.468 84.0558C49.9456 83.2346 48.4232 82.4134 46.9594 81.6508C45.4956 80.8882 44.0318 80.1843 42.6265 79.4804C42.6265 79.4804 42.8607 79.6564 43.212 79.891C43.5634 80.1257 44.0903 80.4776 44.7344 80.8883C46.0226 81.7095 47.7206 82.8827 49.4187 83.9972C51.1167 85.1117 52.8147 86.2262 54.0443 87.1648C55.2739 88.0447 56.0937 88.6899 56.0937 88.6899C54.8641 87.9274 53.5759 87.1648 52.2877 86.3436C50.941 85.581 49.6529 84.8771 48.3061 84.1145C45.6127 82.5894 42.8022 81.1229 40.1673 79.3631C34.7219 76.0195 29.7449 71.7374 25.6462 66.986C21.5475 62.2346 18.3856 57.014 16.102 51.9106C15.5165 50.6201 15.0481 49.3296 14.5211 48.0977C14.1112 46.8072 13.6428 45.5754 13.2915 44.3436C12.5303 41.9385 12.0033 39.5335 11.652 37.3045C11.7691 39.2989 12.0619 41.5279 12.5889 43.757C12.706 44.2849 12.8816 44.8715 12.9987 45.4581C13.1744 46.0447 13.3501 46.5726 13.5257 47.1592C13.877 48.2737 14.2869 49.3883 14.6968 50.5028C14.8724 51.0894 15.1652 51.6173 15.3994 52.1452C15.6336 52.6732 15.8678 53.2598 16.102 53.7877C16.629 54.8436 17.2146 55.8994 17.7415 56.9553C18.9126 58.9497 20.0836 60.9441 21.3718 62.7039C22.6014 64.5223 23.9481 65.9888 25.0606 67.4553C25.6462 68.1592 26.2317 68.7458 26.7587 69.391C27.2857 69.9776 27.7541 70.5642 28.2225 71.0335C30.0962 72.9693 31.1501 74.2598 30.7988 74.4357C30.2133 74.4357 26.1731 71.3855 22.3087 66.6927C22.0744 66.3994 21.8402 66.1061 21.5475 65.8128C21.3133 65.5195 21.079 65.2262 20.8448 64.8743C20.3764 64.229 19.908 63.5838 19.4396 62.9385L18.7369 61.9413C18.5027 61.5894 18.3271 61.2374 18.0928 60.9441C17.683 60.2402 17.2731 59.595 16.8632 58.891C15.3409 56.1927 14.1698 53.4944 13.4086 51.3827C12.6474 49.1536 11.9448 46.9246 11.4764 44.6955C10.9494 42.5251 10.5981 40.1788 10.4224 37.9497C10.2468 35.7207 10.2468 33.4916 10.4224 31.2626C10.6566 29.0335 11.0665 26.8631 11.7691 24.7514C13.0573 20.5279 15.6922 16.5978 19.381 14.0167C23.0698 11.4357 27.637 10.3799 31.8528 10.6145C33.9607 10.7318 36.0686 11.0838 38.0594 11.6704C40.0502 12.257 41.9824 13.0782 43.7976 14.1341C45.6127 15.1313 47.3107 16.3631 48.8331 17.7709C50.3555 19.1201 51.7608 20.5866 52.9904 22.1704C55.5082 25.2793 57.499 28.7989 59.1384 32.2598C59.6069 33.257 60.0167 34.3128 60.4266 35.486C60.6608 36.0726 60.8365 36.6592 61.0707 37.3045L61.422 38.3017L61.4805 38.5363L61.5391 38.6536V38.7123V38.7709L61.7733 38.419C62.0075 38.067 62.2417 37.7151 62.5345 37.3631C62.8858 37.0112 63.1786 36.6592 63.5299 36.3073Z" fill="#BE0411"/>
<path d="M30.4475 8.26813C28.0468 8.26813 25.8804 8.62009 23.8896 9.14802C21.9573 9.79327 20.2008 10.4972 18.7955 11.4357C15.9264 13.2542 14.2284 15.3072 12.9988 17.0084C11.8862 18.7681 11.1836 20.2933 10.7737 21.5838C10.3053 22.8743 10.1297 23.9888 9.89544 25.0447C9.77834 26.1005 9.60268 27.1564 9.54413 28.3882C9.48557 28.9748 9.48557 29.6787 9.42702 30.3827C9.36847 31.0866 9.36847 31.9078 9.36847 32.7877C9.36847 34.5475 9.48557 36.6592 9.83689 39.2989C9.954 39.9441 10.0711 40.648 10.1882 41.4106C10.3639 42.1145 10.481 42.9357 10.6566 43.6983C10.8323 44.4609 11.0665 45.2821 11.3007 46.162C11.5349 46.9832 11.8277 47.9218 12.1205 48.8603C11.1251 47.1005 11.4764 49.9748 13.1744 54.4329C13.5843 55.5475 14.1698 56.7206 14.6968 57.9525C14.8139 58.2458 14.9895 58.5977 15.1652 58.891C15.3409 59.1843 15.5165 59.4776 15.6922 59.8296C16.0435 60.4748 16.3948 61.0614 16.7461 61.7067C18.21 64.229 19.9665 66.6341 21.6646 68.6871C25.1778 72.4413 29.335 76.2542 33.7265 79.4218C35.9515 81.0642 38.1765 82.4134 40.343 83.7625C41.3969 84.4078 42.4509 84.9944 43.4463 85.581C44.4417 86.1676 45.4371 86.6955 46.3154 87.2234C48.716 88.6899 49.6529 89.5698 48.716 89.3938C48.2476 89.2765 47.3693 88.9246 45.964 88.2793C45.2614 87.9273 44.4417 87.5167 43.4463 86.9888C42.4509 86.4609 41.3384 85.8743 40.1087 85.1704C38.5864 84.1145 37.064 83.0586 35.4831 82.0028C34.7219 81.4162 33.9607 80.8296 33.1409 80.243C32.7311 79.9497 32.3798 79.6564 31.9699 79.3631C31.56 79.0698 31.2087 78.7178 30.8574 78.4246C30.0962 77.7793 29.335 77.1341 28.5738 76.4888C27.8712 75.7849 27.11 75.1396 26.3488 74.4357L25.2363 73.3799L24.1824 72.2653C23.4797 71.5028 22.7771 70.7989 22.0745 70.0363C21.4304 69.2151 20.7863 68.4525 20.0837 67.6313C19.7323 67.2206 19.381 66.8687 19.0883 66.3994L18.1514 65.1089C17.5659 64.229 16.9218 63.4078 16.3363 62.5279C15.7507 61.648 15.2238 60.7681 14.6382 59.8296L14.2284 59.1843L13.877 58.4804L13.2915 57.0726C12.8231 56.1341 12.2961 55.1955 11.8862 54.1983C11.4764 53.2011 11.008 52.2625 10.6566 51.2653L10.0711 49.7989C9.89545 49.2709 9.71979 48.8017 9.54413 48.2737L9.01715 46.7486L8.60728 45.2234C8.49018 44.6955 8.31452 44.2262 8.19741 43.6983L7.84609 42.0558C7.43622 39.8854 7.14346 37.7151 7.08491 35.486C7.02635 33.257 7.08491 31.0866 7.43622 28.8575C7.78754 26.6285 8.31452 24.3994 9.13426 22.2877C9.954 20.1173 11.1251 18.0642 12.5889 16.1871C14.0527 14.31 15.8678 12.7262 17.8001 11.4357C19.7909 10.1452 21.9573 9.324 24.1238 8.79607C24.6508 8.67875 25.1778 8.56143 25.7633 8.44411C26.2903 8.38545 26.8172 8.32679 27.3442 8.26813C27.8712 8.20947 28.3982 8.20947 28.9251 8.20947C29.4521 8.26813 29.9791 8.20947 30.4475 8.26813Z" fill="#BE0411"/>
<path d="M52.5805 26.2764C50.3555 23.1088 48.5989 21.2317 47.3693 19.8239C46.1397 18.4161 45.2614 17.5362 44.3831 16.6563C43.5048 15.8351 42.5094 15.0139 40.8114 14.0753C39.1133 13.1954 36.6541 12.0809 32.614 11.7876C33.0238 11.7876 33.4337 11.7876 33.8436 11.7876C34.2534 11.7876 34.6048 11.8463 35.0146 11.9049C35.7758 11.9636 36.4784 12.1396 37.1225 12.2569C38.4692 12.6088 39.7574 13.1368 41.2798 13.8407C42.7436 14.6032 44.3245 15.6004 46.1982 17.1256C48.0719 18.6507 50.1213 20.7038 52.3463 23.5781C52.3463 23.5781 51.995 23.1675 51.468 22.5809C51.2338 22.2876 50.8825 21.9356 50.5311 21.6423C50.1798 21.2904 49.8285 20.9384 49.4186 20.5865C48.6574 19.8826 47.8377 19.2373 47.1936 18.7094C46.9009 18.4747 46.6081 18.2988 46.4324 18.1228C46.2568 18.0055 46.1397 17.8882 46.1397 17.8882C46.1397 17.8882 46.2568 18.0055 46.491 18.1815C46.7252 18.3574 47.018 18.6507 47.3693 19.0613C48.0719 19.7653 48.9502 20.7625 49.7114 21.8183C50.1213 22.3463 50.5311 22.8742 50.8239 23.4021C51.1752 23.9301 51.468 24.3993 51.7608 24.8099C51.995 25.2206 52.2292 25.5725 52.4048 25.8072C52.4634 26.1591 52.5805 26.2764 52.5805 26.2764Z" fill="white"/>
<path d="M50.0042 87.5754C50.4726 87.8687 50.9996 88.1034 51.5266 88.4553C52.0536 88.8073 52.5805 89.1592 53.1661 89.5112C54.2786 90.2738 55.5667 91.0363 56.7963 91.9162C59.197 93.7347 61.5977 95.9051 63.3543 98.3101C64.2911 99.4833 64.9938 100.715 65.6378 101.888C65.8135 102.182 65.9306 102.475 66.0477 102.768C66.1063 102.885 66.1648 103.061 66.2234 103.179L66.3405 103.413L66.4576 103.765C66.6332 104.235 66.7503 104.645 66.926 105.115C67.0431 105.584 67.1602 106.112 67.2773 106.581C67.5115 107.578 67.6872 108.575 67.8628 109.455C67.9799 110.453 68.0971 111.391 68.2142 112.271C68.2727 112.74 68.2727 113.151 68.3313 113.503C68.3313 113.679 68.3898 113.913 68.3898 114.089C68.3898 114.383 68.3313 114.617 68.3313 114.911C68.2727 115.967 68.2142 116.905 68.1556 117.668C68.5655 118.137 68.6826 118.489 68.6826 118.723C68.8582 118.841 68.9168 118.958 68.9754 119.017C69.0339 119.075 69.0339 119.193 69.0339 119.251C69.0339 119.427 68.9753 119.545 69.0339 119.721C69.0925 119.897 69.2096 120.131 69.6194 120.425C69.7951 120.542 70.0879 120.718 70.3806 120.894C70.6148 121.07 70.849 121.246 71.2004 121.48C71.0247 121.304 70.9076 121.187 70.7319 121.011C70.6148 120.953 70.5563 120.835 70.4392 120.718C70.3221 120.601 70.1464 120.483 70.0293 120.425C69.7365 120.19 69.4438 119.955 69.0925 119.721C69.0339 119.662 68.9168 119.603 68.8582 119.545C68.7411 119.486 68.624 119.427 68.5069 119.31C68.2727 119.193 68.0385 119.017 67.8043 118.899C67.8628 117.844 67.9214 116.729 67.9214 115.615C67.9214 115.497 67.9214 115.321 67.9214 115.204L67.8628 114.911L67.8043 114.383C67.7457 114.031 67.6872 113.679 67.6286 113.268C67.5115 112.564 67.3944 111.802 67.3359 111.039L67.2773 110.453L67.1602 109.925C67.1017 109.573 66.9846 109.221 66.926 108.927C66.8089 108.223 66.6332 107.578 66.399 106.874C66.2819 106.522 66.2234 106.17 66.1063 105.877C65.9892 105.525 65.872 105.291 65.8135 104.997C65.6964 104.704 65.5793 104.411 65.5207 104.117L65.4622 103.883C65.4622 103.824 65.4036 103.765 65.4036 103.707L65.2865 103.472C65.1109 103.179 64.9938 102.885 64.8181 102.534C63.5885 100.07 61.6562 97.7235 59.6654 95.6704C58.67 94.6732 57.6161 93.676 56.6207 92.8548C56.0937 92.4442 55.6253 92.0335 55.1569 91.6229C54.6299 91.271 54.1615 90.8604 53.7516 90.5671C52.8733 89.8632 52.1121 89.2766 51.468 88.7486C50.7654 88.338 50.297 87.9274 50.0042 87.5754Z" fill="#BE0411"/>
<path d="M20.4349 56.2515C21.1961 57.366 21.8988 58.5392 22.6599 59.6537C23.0698 60.2403 23.4797 60.7682 23.9481 61.3548C24.358 61.9414 24.8264 62.528 25.2948 63.1146C26.2902 64.2878 27.2856 65.5783 28.5152 66.7515C29.1008 67.3967 29.7448 68.042 30.3889 68.6872C31.0916 69.3325 31.7942 69.9777 32.5554 70.6816C30.506 68.9805 28.2225 67.0448 26.1146 64.5811C25.5876 63.9945 25.0606 63.3492 24.5336 62.704C24.0067 62.0587 23.5382 61.3548 23.0698 60.6509C22.0159 59.3604 21.2547 57.7766 20.4349 56.2515Z" fill="white"/>
<path d="M61.5391 93.0307C61.0707 92.0921 62.7687 93.3826 64.5253 95.3771C65.4036 96.3743 66.2819 97.5474 66.9846 98.662C67.6872 99.7765 68.2142 100.774 68.5069 101.419C68.5069 101.419 68.624 101.771 68.8582 102.24C69.0339 102.768 69.3267 103.531 69.5609 104.293C69.7951 105.056 69.9707 105.936 70.0879 106.581C70.205 107.226 70.2635 107.695 70.2635 107.695C70.1464 107.344 70.0879 106.933 69.9708 106.522C69.8536 106.112 69.7365 105.76 69.6194 105.349C69.3267 104.587 69.0925 103.765 68.7411 103.003L68.5069 102.416C68.4484 102.24 68.3313 102.064 68.2727 101.947C68.0971 101.654 67.9214 101.302 67.7457 101.008L67.1602 100.07C66.9845 99.7765 66.7503 99.4832 66.5747 99.1312C65.7549 97.9581 64.8766 96.7849 63.9984 95.7877C63.1201 94.7905 62.3003 93.8519 61.5391 93.0307Z" fill="#BE0411"/>
<path d="M101.531 87.1062C107.503 83 104.634 85.4051 101.999 87.6341C99.3643 89.8632 96.9636 91.7989 104.048 86.8129C104.048 86.8129 102.058 88.2794 100.008 89.7458C99.0129 90.5084 98.0175 91.2123 97.2564 91.7989C96.6708 92.2682 96.2609 92.5615 96.2609 92.5615C96.2609 92.5615 96.0853 92.6201 95.734 92.6788C95.4412 92.7961 95.0313 92.9134 94.6215 93.0308C93.8017 93.2654 92.982 93.676 92.982 93.676C92.982 93.676 93.4504 93.2067 94.1531 92.5615C94.5044 92.2682 94.9142 91.8576 95.3827 91.5056C95.6169 91.3296 95.8511 91.1537 96.0853 90.9777L96.4366 90.6844L96.8465 90.3911C99.2471 88.7486 101.531 87.1062 101.531 87.1062Z" fill="#BE0411"/>
<path d="M119.565 73.9078C119.916 73.5559 120.326 73.1453 120.678 72.7933C121.029 72.3827 121.38 72.0308 121.79 71.6201C122.551 70.7989 123.312 69.9777 124.191 69.0978C125.069 68.2179 126.006 67.2207 127.118 66.2235C127.411 65.9302 127.645 65.6956 127.938 65.4023C128.231 65.109 128.524 64.8157 128.816 64.4637C129.402 63.8185 130.046 63.1732 130.69 62.4106C130.69 62.4106 130.573 62.6453 130.339 62.9972C130.105 63.3492 129.812 63.7598 129.519 64.2291C128.875 65.109 128.231 65.9889 128.231 65.9889C127.353 67.0447 126.181 68.0419 124.776 69.2738C124.074 69.919 123.312 70.5643 122.434 71.3855C121.614 72.0894 120.678 72.9693 119.565 73.9078Z" fill="#BE0411"/>
<path d="M103.053 83.7625C103.756 83.2345 104.283 82.7653 104.81 82.3547C105.337 81.944 105.747 81.5921 106.098 81.2988C106.859 80.7122 107.386 80.3602 107.913 80.0669C108.908 79.4803 109.728 79.1284 111.543 77.8379C110.606 78.7764 107.152 81.4161 104.576 83.2345C101.999 84.9943 100.243 85.8742 103.053 83.7625Z" fill="#BE0411"/>
<path d="M132.974 28.5056C133.618 31.028 133.559 35.1928 132.037 39.8855C131.685 41.0587 131.217 42.2319 130.749 43.4637C130.163 44.6369 129.636 45.9274 128.992 47.1006C127.704 49.5643 126.181 51.9693 124.542 54.257C127.821 49.6229 129.46 45.9274 130.807 42.1146C132.037 38.243 133.149 34.1369 132.974 28.5056Z" fill="#BE0411"/>
<path d="M33.7264 27.8603C34.1949 27.8016 34.7218 27.6843 35.1903 27.6257C35.6587 27.567 36.1857 27.5084 36.6541 27.4497C37.1225 27.391 37.6495 27.391 38.1179 27.3324L39.5817 27.2737C40.1087 27.2737 40.6357 27.2737 41.1041 27.3324L41.8067 27.391C42.041 27.391 42.2166 27.4497 42.4508 27.5084C43.2706 27.6843 43.9732 27.8603 44.7344 28.0363C45.437 28.2709 46.1397 28.5056 46.9008 28.8575C47.3107 29.0335 47.662 29.2095 48.0719 29.4441C48.3061 29.5614 48.4818 29.6787 48.716 29.7961L49.0673 30.0307C49.9456 30.6173 50.8239 31.1452 51.6436 31.6145C52.4634 32.1424 53.2246 32.6117 53.8686 33.0223C53.8686 33.0223 53.2831 32.4944 52.639 31.9078C51.9949 31.3799 51.4094 30.7933 51.4094 30.7933C50.7068 30.324 50.1213 29.972 49.4772 29.5614L48.9502 29.2095C48.6574 29.0335 48.3061 28.8575 48.0133 28.6815C47.7206 28.5056 47.4278 28.4469 47.1936 28.2709L46.7837 28.0949L46.3739 27.9776C45.3199 27.567 44.3831 27.3324 43.3291 27.0977C42.7436 26.9804 42.2752 26.9218 41.6311 26.8631C41.0456 26.8044 40.2844 26.8044 39.5817 26.8044L38.1179 26.9218C37.6495 26.9804 37.1225 27.0391 36.6541 27.0977C36.1857 27.1564 35.6587 27.2737 35.1903 27.391C34.7218 27.6257 34.1949 27.743 33.7264 27.8603Z" fill="#BE0411"/>
<path d="M69.7365 98.838C72.0201 100.598 72.6056 100.891 72.1957 100.304C71.7273 99.7179 70.2635 98.0754 67.9214 95.905C66.8089 94.7905 65.4622 93.5586 63.9983 92.1508C63.12 91.3883 62.1832 90.567 61.1878 89.6871C60.9536 89.5112 60.7194 89.2765 60.4852 89.0419C60.2509 88.8659 60.0167 88.6313 59.724 88.4553C59.197 88.0447 58.7286 87.6341 58.2016 87.1648C57.1476 86.2849 56.0351 85.4637 54.9226 84.5251L53.7516 83.7039C53.3417 83.4693 52.9318 83.176 52.5805 82.9413C51.7608 82.4721 50.9996 81.9441 50.1798 81.4162C49.3601 80.9469 48.5404 80.4776 47.7206 80.0084C46.9009 79.5391 46.0811 79.0698 45.2028 78.6592C44.3246 78.2486 43.5048 77.838 42.6265 77.4274C42.2167 77.1927 41.7482 77.0167 41.2798 76.8408L39.9331 76.2542C38.1179 75.4329 36.1272 74.5531 34.1364 73.4385C33.6094 73.1452 33.141 72.9106 32.614 72.5586L31.1502 71.5614C30.6817 71.2095 30.1548 70.7989 29.6863 70.3883C29.4521 70.2123 29.2179 69.9776 28.9837 69.8017L28.2811 69.0978C27.2857 68.1592 26.583 67.2793 25.8804 66.3408L24.8264 64.9329C24.4751 64.4637 24.1824 63.9357 23.8896 63.4665C22.66 61.4721 21.606 59.3017 20.8448 56.8966C20.4935 55.6648 20.2008 54.4329 20.0837 53.0251C19.9666 52.7318 19.908 52.3799 19.908 52.0866L19.8494 51.324C19.8494 50.7961 19.7909 50.2681 19.7909 49.7402C19.7909 49.7402 19.7323 49.095 19.6738 48.0977C19.6152 47.1005 19.5567 45.6927 19.6738 44.2262C19.7323 42.7598 19.9666 41.2346 20.2593 40.0028C20.5521 38.8296 20.8448 37.9497 20.8448 37.9497C20.1422 39.5335 19.7323 41.176 19.4396 42.7598C19.1468 44.4022 19.0297 45.986 18.9712 47.5698C18.9126 49.1536 18.9712 50.6788 19.0297 52.2626C19.2054 54.3743 19.5567 56.4274 20.2008 58.3045C21.4304 62.0586 23.3626 65.3436 25.8218 68.4525L26.2903 69.0391L26.8758 69.6257C27.2857 70.0363 27.637 70.4469 28.0469 70.8575C28.4567 71.2095 28.8666 71.5614 29.2765 71.9134C29.6863 72.2654 30.0962 72.6173 30.5061 72.9106C31.3258 73.4972 32.2041 74.1424 33.0238 74.6117C33.4337 74.8464 33.9021 75.1396 34.312 75.3743L35.5416 76.0782C36.3614 76.5475 37.1811 76.8994 38.0008 77.31L40.2844 78.4246C41.8068 79.1285 43.0949 79.8324 44.5588 80.5363C45.2614 80.8883 45.964 81.2402 46.6081 81.6508C47.3108 82.0028 47.9548 82.4134 48.6575 82.7654C50.0042 83.5279 51.2924 84.3491 52.5805 85.1704C53.8687 85.9916 55.0983 86.8715 56.3279 87.6927C57.5575 88.5726 58.7286 89.4525 59.8996 90.2737C60.4852 90.743 61.0121 91.1536 61.5977 91.5642C61.8904 91.7989 62.1246 91.9748 62.4174 92.2095L62.8273 92.5028L62.9444 92.5614L63.0029 92.6201L63.1786 92.7961L63.5885 93.148C65.6378 95.0838 67.7457 96.9609 69.7365 98.838Z" fill="#BE0411"/>
<path d="M76.0017 87.2821C75.0063 88.8073 74.3037 90.4497 73.8938 92.3268C73.8352 92.6201 73.7767 92.9721 73.7767 93.2654L73.7181 93.7346C73.7181 93.7933 73.7181 93.852 73.7181 93.852L73.601 93.7933L73.4254 93.6173C72.9569 93.148 72.4885 92.7374 72.0201 92.2682C71.5517 91.7989 71.0832 91.3883 70.6148 90.919C70.1464 90.5084 69.6194 90.0391 69.151 89.6285C68.1556 88.7486 67.1602 87.8687 66.1062 87.1061C65.0523 86.2849 64.0569 85.4637 62.9444 84.7598C58.7871 81.7095 54.6884 79.3631 51.6437 77.5447C55.8595 80.067 60.3095 83.1173 64.2911 86.3436C64.7595 86.7542 65.2865 87.1648 65.7549 87.5754C65.9891 87.7514 66.2234 87.986 66.4576 88.162C66.6918 88.338 66.9845 88.5726 67.2188 88.8073C68.2142 89.7458 69.2096 90.6257 70.1464 91.4469C71.0832 92.3268 71.9615 93.2067 72.8398 94.0279C73.074 94.2626 73.2497 94.4386 73.4839 94.6732L73.7767 94.9665L73.9523 95.1425L74.0109 95.2011V95.1425C74.128 94.7318 74.2451 94.3212 74.3622 93.9693C74.7135 92.2095 75.1819 90.567 75.7675 89.2179C75.8846 88.8659 76.0602 88.5726 76.2359 88.2793C76.4116 87.986 76.5287 87.6927 76.7043 87.3994C76.88 87.1648 77.0556 86.8715 77.2313 86.6369C77.407 86.4022 77.5241 86.1676 77.6997 85.9916C78.9293 84.2905 80.1004 83.1173 81.1543 82.0614C81.5057 81.5335 80.5688 82.1788 79.3978 83.352C78.1681 84.3492 76.8214 86.0503 76.0017 87.2821Z" fill="white"/>
<path d="M65.8135 85.8744C66.4576 86.5196 67.2188 87.3995 67.9214 88.1621C68.624 88.9833 69.3852 89.8045 70.0878 90.6257C71.4931 92.2095 72.8984 93.852 74.3622 95.5531C74.9477 93.0308 75.5918 90.5084 76.1773 87.9274C76.5287 86.5196 76.8214 85.1704 77.1727 83.7626C77.2313 83.4107 77.3484 83.0587 77.407 82.7067L77.7583 81.7682C77.9925 81.123 78.1681 80.5364 78.4024 79.8911C78.6366 79.2459 78.8122 78.6593 79.0464 78.014L79.2221 77.5447L79.2806 77.3101L79.3392 77.1928V77.1341L79.5734 76.7822C79.8662 76.3129 80.1004 75.8436 80.3932 75.3157C80.5103 75.0811 80.6859 74.8464 80.8616 74.6704L81.33 74.0252C81.6228 73.6146 81.9155 73.1453 82.2668 72.7933C82.6182 72.3827 82.9695 72.0308 83.2622 71.6202C83.6136 71.2682 84.0234 70.9162 84.3748 70.5643C84.5504 70.3883 84.7261 70.2123 84.9603 70.0364L85.6044 69.5671L86.2485 69.0978C86.4827 68.9218 86.6583 68.7459 86.8925 68.6285C87.8294 68.0419 88.7077 67.3967 89.8787 66.8101C91.0498 66.1649 92.2208 65.4609 93.4505 64.8157C94.0945 64.4637 94.7386 64.0531 95.4413 63.6425L96.4366 63.0559C96.788 62.8799 97.1393 62.5866 97.4906 62.352C98.8959 61.3548 100.243 60.2403 101.531 58.9498C102.819 57.6593 103.99 56.1928 104.985 54.433C105.981 52.6732 106.801 50.6788 107.152 48.4498C107.269 47.9218 107.269 47.3352 107.327 46.8073C107.386 46.2207 107.327 45.6928 107.327 45.1062C107.327 44.5196 107.21 43.9917 107.152 43.4637L107.035 42.6425L106.801 41.7626C106.508 40.6481 105.981 39.4749 105.337 38.3604C104.693 37.3045 103.873 36.3073 102.936 35.4861C101.121 33.8436 99.0715 32.9637 97.2564 32.4358C95.3827 31.9079 93.6847 31.7319 92.1037 31.7319C95.3242 32.0252 98.0761 32.8464 100.418 34.3716C102.76 35.8967 104.576 38.2431 105.454 40.8827C105.571 41.2347 105.688 41.528 105.747 41.8799C105.805 42.2319 105.922 42.5839 105.981 42.9358C106.039 43.2878 106.039 43.5811 106.098 43.933C106.098 44.109 106.156 44.285 106.156 44.4609C106.156 44.6369 106.156 44.8129 106.156 44.9889C106.215 46.4554 105.981 48.0978 105.454 49.7989C104.4 53.2012 101.999 56.6034 98.3689 59.4777C99.5985 58.1872 100.77 56.838 101.882 55.2542C102.936 53.7291 103.931 51.9693 104.576 49.9163C105.22 47.9218 105.454 45.6341 105.102 43.4637C104.868 41.2934 103.756 38.7123 101.941 36.8939C101.062 36.014 100.008 35.2514 99.013 34.6649C97.959 34.0783 96.9051 33.6677 95.8511 33.3744C94.7972 33.0811 93.7432 32.9051 92.7478 32.7291C91.6939 32.6118 90.8156 32.6118 89.8202 32.5531C86.0142 32.4358 82.1497 32.9051 78.2267 34.1369C79.8076 33.7263 80.9787 33.433 81.7399 33.3744C82.5011 33.257 82.8524 33.257 82.9109 33.3157C82.9695 33.3744 82.6767 33.4917 82.1497 33.6677C81.857 33.7263 81.5642 33.8436 81.1543 33.9609C80.7445 34.0783 80.3346 34.2542 79.8662 34.4302C79.3978 34.6062 78.8708 34.7822 78.2852 34.9582C77.7583 35.1928 77.1727 35.4274 76.5287 35.6621C76.2359 35.7794 75.8846 35.8967 75.5918 36.0727C75.2991 36.2487 74.9477 36.366 74.655 36.542C74.0109 36.8939 73.3668 37.1872 72.7227 37.5978C72.0786 38.0084 71.4346 38.419 70.7319 38.8883L69.7365 39.6509L68.7997 40.4135C67.6286 41.4107 66.3405 42.8771 66.1062 43.2878C65.9306 43.5224 65.7549 43.757 65.5793 43.9917C65.0523 44.8129 64.6424 45.7514 64.5839 46.8073C64.5253 47.1593 64.5839 47.6285 64.6424 47.9218C64.5839 47.4526 64.5253 47.042 64.4082 46.6313C64.174 45.7514 63.8227 44.9302 63.3543 44.1677C63.12 43.8157 62.8858 43.4637 62.5931 43.1118C62.5345 43.0531 62.4174 42.9358 62.4174 42.8771L61.8904 42.2319C61.4806 41.7626 61.0121 41.2934 60.6023 40.8241C58.8457 39.0056 56.972 37.3632 54.9812 35.838C53.9858 35.0755 52.9904 34.3129 51.995 33.609C50.9996 32.9051 49.9456 32.1425 48.9502 31.4973L48.1891 30.9693L48.072 30.9107L47.8963 30.7934L47.6035 30.6174C47.4279 30.5001 47.1937 30.3827 46.9594 30.2654C46.1983 29.8548 45.4371 29.5615 44.7344 29.3269C44.3831 29.2096 44.0318 29.0922 43.6219 28.9749C43.2706 28.8576 42.8607 28.7989 42.4509 28.7403C41.6897 28.5643 40.7528 28.5056 39.7574 28.5056C37.591 28.623 35.4245 28.8576 33.1995 29.5028C30.9745 30.1481 28.6909 31.204 26.7587 32.9051C24.8264 34.6062 23.3626 36.8353 22.5429 39.0643C21.7231 41.2934 21.3718 43.4637 21.2547 45.5168C21.1962 47.1006 21.2547 49.0364 21.3718 51.0894C21.3718 51.3827 21.4304 51.6174 21.4304 51.9107C21.4889 52.2626 21.4889 52.5559 21.5475 52.9079C21.606 53.2598 21.6646 53.6118 21.6646 53.9637C21.7231 54.3157 21.8403 54.609 21.8988 54.9609C21.9574 55.3129 22.0745 55.6062 22.133 55.9582C22.1916 56.3101 22.3672 56.6034 22.4258 56.9554C22.66 57.6006 22.8942 58.3045 23.187 58.8911C24.2995 61.4721 25.7633 63.9358 27.5784 66.1649L28.2811 66.9861L29.1008 67.8073L29.9206 68.6285C30.2133 68.8632 30.5061 69.0978 30.7988 69.3325C31.0916 69.5671 31.3844 69.8017 31.6771 70.0364C31.9699 70.271 32.2627 70.447 32.5554 70.6816C33.141 71.0922 33.7265 71.5028 34.312 71.8548C36.5956 73.2626 38.8206 74.2598 40.6943 75.1397C42.5094 75.9609 44.0904 76.6648 45.32 77.2514C45.964 77.5447 46.491 77.7207 46.9009 77.9554C47.3108 78.1313 47.6621 78.3073 47.9548 78.366C48.4233 78.4833 48.5404 78.366 48.072 77.8967C49.7114 78.8352 51.1753 79.5978 52.4634 80.4777C53.7516 81.2989 54.8641 82.0028 55.8595 82.7654C56.8549 83.528 57.7917 84.1732 58.5529 84.8771C59.3727 85.581 60.0753 86.2263 60.7779 86.8129C61.4806 87.4581 62.1247 88.1034 62.8273 88.7486C63.5885 89.4526 64.3497 90.2151 65.1694 90.9777C67.6286 93.4414 70.3221 96.1397 73.7181 99.5419C74.3622 100.129 74.9477 100.656 75.5918 101.243C76.0017 101.419 76.4116 101.478 76.8214 101.654C76.9971 100.48 77.1727 99.3073 77.2899 98.1928C77.4655 97.0196 77.6412 95.9051 77.8168 94.7319C77.9925 93.676 78.1681 92.6202 78.4024 91.6229C78.6951 90.8017 78.9879 89.9218 79.2806 89.1593L79.5734 88.6313C79.632 88.514 79.6905 88.4554 79.7491 88.3967L79.8662 88.1621L80.2175 87.6341L80.9787 86.6369L81.7984 85.6397C82.0912 85.2878 82.384 84.9945 82.6767 84.7012C85.1359 82.1788 88.1221 80.0084 91.2254 77.8967C94.3873 75.785 97.5492 73.6732 100.77 71.6202C103.99 69.5671 107.152 67.514 110.372 65.4609C113.651 63.2906 116.989 61.0028 120.151 58.0699C120.97 57.3073 121.731 56.5447 122.493 55.7822C123.254 54.9609 123.957 54.0811 124.718 53.2598C125.42 52.3799 126.064 51.3827 126.767 50.4442C127.411 49.447 128.055 48.3325 128.582 47.2766C129.695 45.0475 130.514 42.7012 130.983 40.1788C131.51 37.6565 131.685 35.0168 131.393 32.3185C131.1 29.6202 130.397 26.7459 128.934 24.1649C127.528 21.5252 125.479 19.1788 123.078 17.4777C123.43 17.595 123.488 17.5364 123.195 17.1844C123.078 17.0084 122.844 16.8325 122.61 16.5392C122.317 16.3045 121.966 16.0112 121.614 15.7179C120.033 14.4861 117.281 13.0783 114.12 12.1984C112.539 11.7878 110.841 11.4358 109.084 11.3185L107.796 11.2598C107.386 11.2598 106.918 11.2598 106.508 11.2012C105.688 11.2012 104.868 11.2598 104.049 11.3185C100.828 11.5531 98.0176 12.1984 96.0853 12.6677C95.207 12.9023 94.3287 13.1956 93.3919 13.4302C92.4551 13.7235 91.4597 14.0755 90.5228 14.4274C88.532 15.1313 86.5412 15.9526 84.4333 16.8911C82.3254 17.8297 80.1589 18.8269 78.051 19.9414C75.8846 21.0559 73.7767 22.2878 71.7273 23.6369C69.678 24.9861 67.7457 26.4526 66.0477 27.919C65.5793 28.271 65.1694 28.6816 64.7595 29.0336C64.3497 29.4442 63.9398 29.7961 63.5885 30.1481C63.4128 30.3241 63.2372 30.5001 63.0615 30.7347L63.0029 30.7934C63.0029 30.852 62.9444 30.852 62.9444 30.9107C62.7687 31.2626 62.5931 31.7906 62.4174 32.4358C62.3589 32.6118 62.3589 32.7291 62.3003 32.8464C62.3003 32.9637 62.2418 33.0224 62.2418 33.1397C62.2418 33.257 62.2418 33.433 62.2418 33.5503C62.2418 33.6677 62.2418 33.7263 62.3003 33.785C62.3003 33.8436 62.3003 33.8436 62.3003 33.8436C62.476 33.785 62.7687 33.4917 63.1201 33.1397C63.2957 32.9637 63.4714 32.7291 63.7056 32.5531C63.8227 32.4358 63.9398 32.3185 64.0569 32.2012C64.2326 32.0252 64.4668 31.7906 64.6424 31.6146C65.4036 30.9107 66.1648 30.2068 66.9845 29.5028C67.8043 28.7989 68.624 28.095 69.5609 27.4498C71.3175 26.1006 73.1911 24.8101 75.1819 23.5783C79.105 21.1146 83.3794 19.0615 87.6537 17.3017C89.7616 16.4218 91.9866 15.6593 94.2116 14.9554C96.4366 14.3101 98.7202 13.8408 101.004 13.6062C101.999 13.4889 102.877 13.4889 103.697 13.4302C104.517 13.4302 105.22 13.4302 105.864 13.4889C107.152 13.5475 108.089 13.6649 108.733 13.7822C110.021 14.0168 110.021 14.1928 109.201 14.1928C108.381 14.1928 106.683 14.1341 104.517 14.3688C102.35 14.6034 99.6571 15.014 96.9051 15.8353C94.1531 16.6565 91.284 17.7123 88.5906 18.8855C85.8971 20.0587 83.2622 21.2906 80.9787 22.4637C76.4116 24.8688 73.4254 27.2151 73.5425 27.6258C75.2405 26.3352 76.7629 25.7487 79.2221 24.6928C81.6813 23.6369 85.0774 22.1704 90.8156 19.6481C87.7708 20.9386 85.6629 21.9945 84.3162 22.757C82.9695 23.5196 82.3254 23.9302 82.1497 24.1062C81.857 24.4582 83.555 23.8716 85.6044 23.2263C87.6537 22.5224 90.1715 21.8185 91.3426 21.5839C92.5136 21.4079 92.3965 21.6425 89.4103 23.1677C96.3781 20.4693 101.589 19.3548 105.512 19.4721C107.445 19.4135 109.084 19.7068 110.489 20.0001C111.895 20.352 113.007 20.7626 114.003 21.2319C115.935 22.1704 117.34 23.285 118.511 24.8101C119.097 25.5727 119.565 26.3939 120.033 27.3911C120.443 28.447 120.736 29.6202 120.853 31.028C121.322 32.6704 121.38 34.1369 121.38 35.4274C121.38 35.7794 121.38 36.0727 121.38 36.366C121.38 36.6593 121.322 36.9526 121.322 37.2459C121.322 37.7738 121.205 38.3017 121.146 38.7123C121.029 39.5922 120.912 40.3548 120.853 40.8827C120.795 41.4693 120.736 41.9386 120.678 42.2906C120.619 43.0531 120.678 43.4637 120.678 44.0503C120.678 44.3436 120.678 44.6369 120.56 44.9889C120.443 45.3408 120.385 45.8101 120.092 46.338C117.808 50.2682 114.647 53.4358 111.309 56.0755C107.972 58.7738 104.4 61.0615 100.945 63.3492C97.4906 65.6369 94.0945 67.866 90.6985 70.1537C89.0004 71.3269 87.361 72.4414 85.6629 73.6732C83.9649 74.9051 82.2668 76.2542 80.6859 77.7207C81.857 76.2542 82.2669 75.5503 82.0326 75.433C81.7984 75.3157 80.9201 75.785 79.5734 76.7235C78.2267 77.7207 76.4116 79.2459 74.4208 81.5922C73.9523 82.1788 73.4254 82.8241 72.9569 83.528L72.8398 83.704C72.7813 83.7626 72.7813 83.8213 72.7227 83.8213C72.6642 83.9386 72.6056 83.9973 72.5471 84.1146C72.3129 84.5252 72.1372 84.9358 72.0201 85.4637L71.9615 85.757V85.933C71.9615 85.9917 71.9615 85.933 71.903 85.933L71.8444 85.8744C71.6688 85.6984 71.5517 85.5811 71.376 85.4051C71.0832 85.1118 70.7319 84.8185 70.4392 84.5252L69.9707 84.1146L69.9122 84.0559H69.8536L69.9122 84.1146C69.9122 84.1146 69.9122 84.1146 69.8536 84.0559L69.4438 83.704L68.5655 83C67.3944 82.0615 66.2819 81.123 65.0523 80.2431C60.3095 76.7235 55.5082 73.6732 51.4095 71.5028C50.7068 71.0922 50.0042 70.7403 49.3016 70.3883C48.6575 70.0364 48.0134 69.7431 47.4279 69.4498C46.2568 68.8632 45.1443 68.3939 44.266 67.9833C42.5094 67.2207 41.1627 66.6341 40.1088 66.1649C39.0548 65.7542 38.4107 65.4023 37.7666 65.1676C37.1811 64.933 36.7127 64.757 36.2443 64.5811C35.7758 64.4051 35.3074 64.1704 34.7219 63.8185C34.4291 63.6425 34.1949 63.4079 33.8436 63.1732C33.6679 63.0559 33.4923 62.8799 33.3166 62.7626C33.141 62.5866 32.9653 62.352 32.7311 62.176C31.9114 61.3548 30.9745 60.123 29.9791 58.4218C29.5107 57.542 28.9837 56.6034 28.5738 55.4302C28.4567 55.1369 28.3982 54.8436 28.2811 54.5503C28.164 54.257 28.1054 53.9637 28.0469 53.6118C27.8712 52.9665 27.8126 52.3213 27.7541 51.6174C27.8126 50.0336 27.9298 49.2123 28.0469 49.0364C28.164 48.8604 28.2811 49.2123 28.4567 50.0336C28.5153 50.4442 28.5738 50.9135 28.6909 51.5C28.808 51.9693 28.8666 52.4386 29.0423 52.9665C29.2179 53.4945 29.3936 54.0811 29.6278 54.6677C29.7449 54.9609 29.862 55.2542 30.0377 55.5475L30.5061 56.4274C31.7357 58.7738 33.5508 60.7682 34.312 61.2961C34.7219 61.5894 34.839 61.5894 34.6048 61.0615C34.4291 60.5922 33.785 59.6537 33.0239 58.0699C33.0239 58.0699 32.9067 57.9526 32.7896 57.7179C32.614 57.4833 32.4383 57.1313 32.2041 56.7207C31.7357 55.8995 31.2087 54.785 30.7988 53.7291C30.7403 53.4945 30.6232 53.2012 30.5646 52.9665C30.5061 52.7319 30.389 52.4386 30.389 52.204C30.3304 51.9693 30.3304 51.7347 30.2719 51.5587C30.2719 51.5001 30.2719 51.4414 30.2133 51.3827C30.2133 51.3241 30.2133 51.2068 30.2133 51.1481C30.2133 50.9721 30.2133 50.8548 30.1548 50.7375C30.0377 49.623 30.0377 48.919 30.0377 48.919C29.5107 45.3408 29.2765 42.4079 30.2719 39.9442C30.7403 38.7123 31.6186 37.5392 33.0239 36.6593C34.3706 35.7207 36.2443 35.0168 38.4107 34.6649C38.8791 34.6062 39.4647 34.6062 39.9917 34.5475C40.8699 34.5475 42.2752 34.8408 43.3877 35.2514C43.6805 35.3688 43.9147 35.4861 44.2075 35.6034C44.3246 35.6621 44.4417 35.7207 44.5588 35.7794C44.6759 35.838 44.7344 35.8967 44.9101 36.014C45.4371 36.4246 46.0226 36.7766 46.491 37.1285C48.4233 38.5364 49.77 39.6509 49.77 39.8269C47.545 38.3017 45.964 37.4218 45.0272 36.9526C44.793 36.8352 44.5588 36.7766 44.4417 36.7179C44.3831 36.7179 44.3831 36.7179 44.3246 36.6593H44.266C44.2075 36.6593 44.2075 36.6593 44.1489 36.6593C44.0318 36.7179 44.0318 36.7766 44.0904 36.8939C44.266 37.1872 45.2614 38.0671 46.491 39.1816C47.7792 40.2961 49.5943 41.7626 51.5851 43.6397C53.6345 45.1062 54.747 46.1621 55.6838 46.9246C55.918 47.1006 56.0937 47.3352 56.3279 47.5112C56.445 47.6285 56.5036 47.6872 56.6207 47.8045C56.7963 47.9805 56.972 48.1565 57.0891 48.2738C57.2648 48.4498 57.3819 48.5671 57.5575 48.7431C57.6746 48.919 57.8503 49.095 57.9674 49.271C58.2602 49.623 58.5529 49.9749 58.8457 50.3855C58.6115 49.9163 58.3773 49.5056 58.1431 49.095C57.9088 48.6844 57.7332 48.2738 57.499 47.9805C57.3819 47.8045 57.2648 47.6872 57.1477 47.5112C57.0305 47.3352 56.972 47.2766 56.9134 47.1593C56.7963 46.9833 56.6792 46.8073 56.5621 46.6313C56.0937 45.9861 55.7424 45.4582 55.5082 45.1062C54.9812 44.3436 54.9226 44.109 55.2154 44.285C55.5667 44.4609 56.2108 45.0475 57.1477 45.9861C57.3819 46.2207 57.6161 46.514 57.8503 46.8073C58.2016 47.2179 58.5529 47.6285 58.9042 48.1565C59.2556 48.6844 59.6069 49.1537 59.9582 49.7403C60.251 50.4442 60.6023 51.2068 60.9536 51.9693L61.3049 52.1453C61.422 52.204 61.4806 52.2626 61.5977 52.3213C61.7733 52.4386 61.949 52.6146 62.1246 52.7319C62.3003 52.8492 62.476 53.0252 62.7102 53.1425C62.8858 53.2598 63.0029 53.4358 63.1786 53.6118C63.2957 53.7878 63.4714 53.9051 63.5885 54.0811C63.7056 54.257 63.8812 54.3744 63.9983 54.5503C64.2326 54.9023 64.4082 55.2542 64.6424 55.6062C64.7595 55.9581 64.9352 56.3688 65.0523 56.7207L65.1108 56.838C65.1108 56.8967 65.1694 57.0727 65.1694 57.19L65.2865 57.9526C65.3451 58.4805 65.4036 59.0084 65.4622 59.5364L65.5793 60.2989V60.3576C65.6964 62.2347 65.4036 57.8352 65.4622 58.2459V58.1872V58.1285L65.4036 57.9526C65.3451 57.7179 65.2865 57.4833 65.2865 57.3073L65.228 56.7207C65.228 56.4861 65.228 56.3101 65.2865 56.0755C65.4036 55.1956 65.6964 54.3157 66.2234 53.4358C66.8089 52.5559 67.6872 51.676 68.9168 50.7961L69.2095 49.7403C69.3267 49.3883 69.3852 48.9777 69.5023 48.8017L69.9122 48.0978C70.0293 47.8632 70.2049 47.5699 70.3221 47.4526L70.7319 46.866L70.9661 46.5727L71.0832 46.4554L71.2003 46.338C71.4346 46.1034 71.6688 45.8101 71.903 45.5755C72.8984 44.5783 73.8938 43.757 75.0063 43.0531C76.0602 42.2906 77.2313 41.7626 78.2267 41.2347C78.7537 41.0001 79.2807 40.7654 79.8076 40.5308C80.2761 40.2961 80.803 40.1202 81.2715 39.9442C83.9063 39.0643 86.4241 38.5364 88.7662 38.419C89.3518 38.3604 89.9373 38.3604 90.4643 38.3604C90.9912 38.3604 91.5768 38.3017 92.0452 38.3604C93.0406 38.419 94.036 38.5364 94.9143 38.771C96.6709 39.2403 98.0176 40.0615 98.8373 41.176C99.6571 42.2906 99.9498 43.4637 100.008 44.6369C100.125 46.9246 99.2472 48.6844 98.3103 49.9163C97.3735 51.2068 96.261 52.0866 95.1485 52.8492C92.8649 54.433 90.4057 55.2542 85.7215 57.542C85.1359 57.8352 84.4919 58.1872 83.8478 58.4805C83.2037 58.8325 82.5011 59.3017 81.7399 59.7123C80.9787 60.123 80.276 60.7095 79.4563 61.2961C79.0464 61.5894 78.6366 61.8827 78.2852 62.2347C77.9339 62.5866 77.5241 62.9386 77.1142 63.3492C76.7043 63.7598 76.2944 64.1118 75.9431 64.5224C75.5918 64.933 75.1819 65.4023 74.7721 65.8716C73.9523 66.7514 73.2497 67.866 72.4885 68.9218L72.1958 69.3325L71.9615 69.7431C71.7859 70.0364 71.6688 70.3297 71.4931 70.623C71.3175 70.9163 71.1418 71.2095 71.0247 71.5028L70.7905 71.9721C70.7319 72.0894 70.7319 72.1481 70.6734 72.2068C70.5563 72.5 70.4392 72.7933 70.3221 73.028C70.2049 73.3213 70.1464 73.6732 70.0293 73.9665C70.2049 73.7906 70.3221 73.6732 70.4977 73.5559C70.6148 73.4386 70.7905 73.3799 70.849 73.3213C71.0247 73.2626 71.1418 73.3799 71.1418 73.7319C71.0832 74.0839 71.0247 74.6118 70.7905 75.433C70.6734 75.8436 70.5563 76.2542 70.4977 76.7235C70.4392 76.9581 70.3806 77.2514 70.3806 77.4861C70.3806 77.6034 70.3221 77.7794 70.3221 77.8967L70.2635 78.1313C70.2635 78.1313 70.205 78.0727 70.1464 78.014C69.5609 77.3688 68.8582 76.6648 67.9799 75.9609C67.5701 75.609 67.1016 75.3157 66.5747 74.9637C66.2819 74.7878 66.0477 74.6118 65.7549 74.4358C65.3451 74.2012 64.9937 73.9665 64.5839 73.7319C61.2464 71.8548 57.499 70.3883 53.8687 68.9805C52.0535 68.2766 50.297 67.6313 48.5404 66.9274C46.8423 66.2235 45.2614 65.5783 43.9147 64.757C43.2706 64.3464 42.6265 63.9358 42.1581 63.4665C41.8653 63.2319 41.6897 62.9973 41.4555 62.7626C41.2798 62.528 41.0456 62.2933 40.9285 62.0587C40.2844 61.1202 39.9917 60.123 39.9917 59.1844C40.0502 58.5392 40.1673 58.0112 40.4015 57.4833C40.6357 56.9554 40.987 56.5447 41.3384 56.1341C41.514 55.9582 41.6897 55.7822 41.9239 55.6062L42.2167 55.3716C42.3338 55.3129 42.4509 55.2542 42.568 55.1956C42.7436 55.0783 43.0364 54.9609 43.2706 54.8436C43.5048 54.7263 43.739 54.609 43.9732 54.5503C44.9101 54.1984 45.9055 54.0224 46.8423 53.9051C47.7792 53.7878 48.6575 53.8464 49.5358 53.9637C51.2338 54.1984 52.8147 54.609 54.3371 55.3129C55.0983 55.6649 55.8595 56.0755 56.5621 56.5447C56.9134 56.7794 57.2648 57.014 57.6161 57.3073C57.9674 57.6006 58.3187 57.8939 58.67 58.1872C59.3141 58.5978 60.1924 59.2431 61.1292 60.123C62.0661 61.0028 63.0029 62.0587 63.8227 63.2319C64.2326 63.7598 64.5839 64.4051 64.9937 64.933C65.3451 65.4609 65.6378 66.0475 65.9306 66.5168C66.4576 67.4554 66.8674 68.2179 67.1016 68.5112C67.1602 67.6313 67.0431 66.3408 66.6918 64.8157C66.6332 64.4051 66.5161 64.0531 66.3405 63.6425C66.2234 63.2319 66.0477 62.8213 65.872 62.352C65.6964 61.9414 65.4622 61.4721 65.2865 61.0028C65.1694 60.7682 65.0523 60.5336 64.9352 60.2989C64.8181 60.0643 64.6424 59.8297 64.5253 59.595C63.4128 57.6593 61.8319 55.5475 59.4898 53.7291C57.1477 51.9107 54.1614 50.3269 50.4726 49.6816C48.6575 49.3297 46.6667 49.271 44.5588 49.5643C44.0318 49.623 43.5048 49.7989 42.9778 49.9163C42.4509 50.0922 41.9239 50.2095 41.3969 50.4442C40.4015 50.7961 39.1134 51.5 38.0594 52.3799C36.9469 53.3185 36.0686 54.4917 35.4245 55.8408C34.7804 57.19 34.4877 58.7738 34.5462 60.2989C34.6048 61.8827 35.0147 63.4665 35.8344 64.933C35.9515 65.109 36.0101 65.285 36.1272 65.4609L36.4785 65.9889L36.8298 66.5168C36.9469 66.6928 37.064 66.8101 37.1811 66.9274C37.6495 67.514 38.118 68.042 38.6449 68.5699C40.7528 70.5056 43.0364 71.7961 45.0858 72.7933C47.1351 73.8492 49.1845 74.8464 51.1753 75.785C53.1661 76.7235 55.1569 77.7207 57.0305 78.7179C57.9674 79.2459 58.8457 79.7738 59.724 80.3017C60.1924 80.595 60.5437 80.8883 60.9536 81.123L61.2464 81.3576L61.3049 81.4163C61.3049 81.4163 61.3635 81.4163 61.422 81.4749L61.7733 81.7095L63.1201 82.7654C63.2957 82.8827 63.5299 83.0587 63.7056 83.176C63.8227 83.2347 63.8812 83.2933 63.9983 83.352C64.1155 83.4107 64.174 83.528 64.2911 83.5866C64.6424 83.9386 64.9937 84.2319 65.2865 84.5252C65.4622 85.6397 65.8135 85.933 65.8135 85.8744Z" fill="#BE0411"/>
</svg>
