<svg width="25" height="25" viewBox="0 0 25 25" fill="none" xmlns="http://www.w3.org/2000/svg">
<path d="M22.9167 8.33337C22.3642 8.33337 21.8342 8.55287 21.4435 8.94357C21.0528 9.33427 20.8333 9.86417 20.8333 10.4167V11.4584H25V10.4167C25 9.86417 24.7805 9.33427 24.3898 8.94357C23.9991 8.55287 23.4692 8.33337 22.9167 8.33337Z" fill="white"/>
<path d="M14.5833 22.9168V21.8751H0V22.9168C0 23.4693 0.219493 23.9992 0.610194 24.3899C1.0009 24.7806 1.5308 25.0001 2.08333 25.0001H16.6667C16.1141 25.0001 15.5842 24.7806 15.1935 24.3899C14.8028 23.9992 14.5833 23.4693 14.5833 22.9168Z" fill="white"/>
<path d="M7.29165 8.33337C6.73911 8.33337 6.20921 8.55287 5.81851 8.94357C5.42781 9.33427 5.20831 9.86417 5.20831 10.4167V20.8334H15.625V22.9167C15.625 23.4692 15.8445 23.9991 16.2352 24.3898C16.6259 24.7805 17.1558 25 17.7083 25C18.2608 25 18.7908 24.7805 19.1815 24.3898C19.5722 23.9991 19.7916 23.4692 19.7916 22.9167V10.4167C19.7916 9.86417 20.0111 9.33427 20.4018 8.94357C20.7925 8.55287 21.3224 8.33337 21.875 8.33337H7.29165ZM16.6666 17.7084H8.33331V15.625H16.6666V17.7084ZM16.6666 13.5417H8.33331V11.4584H16.6666V13.5417Z" fill="white"/>
<path d="M12.5736 4.42433C13.0647 4.42815 13.5343 4.62663 13.8794 4.97622C14.2244 5.32582 14.4167 5.79799 14.4141 6.28918C14.4141 6.35824 14.4415 6.42448 14.4903 6.47332C14.5392 6.52216 14.6054 6.54959 14.6745 6.54959C14.7435 6.54959 14.8098 6.52216 14.8586 6.47332C14.9074 6.42448 14.9349 6.35824 14.9349 6.28918C14.9321 5.79802 15.1242 5.32581 15.4692 4.97611C15.8141 4.62642 16.2836 4.4278 16.7747 4.42381C16.8438 4.42381 16.91 4.39637 16.9589 4.34753C17.0077 4.2987 17.0351 4.23246 17.0351 4.16339C17.0351 4.09432 17.0077 4.02809 16.9589 3.97925C16.91 3.93041 16.8438 3.90297 16.7747 3.90297C16.2837 3.89902 15.8142 3.70048 15.4693 3.35089C15.1244 3.0013 14.9322 2.52921 14.9349 2.03813C14.9349 1.96906 14.9074 1.90282 14.8586 1.85398C14.8098 1.80515 14.7435 1.77771 14.6745 1.77771C14.6054 1.77771 14.5392 1.80515 14.4903 1.85398C14.4415 1.90282 14.4141 1.96906 14.4141 2.03813C14.4169 2.52941 14.2246 3.00174 13.8796 3.35145C13.5345 3.70117 13.0648 3.89971 12.5736 3.90349C12.5045 3.90349 12.4383 3.93093 12.3894 3.97977C12.3406 4.02861 12.3131 4.09485 12.3131 4.16391C12.3131 4.23298 12.3406 4.29922 12.3894 4.34805C12.4383 4.39689 12.5045 4.42433 12.5736 4.42433Z" fill="white"/>
<path d="M6.19337 2.73158C6.68454 2.7354 7.15415 2.93387 7.49918 3.28347C7.84421 3.63306 8.0365 4.10524 8.03386 4.59642C8.03386 4.66549 8.0613 4.73172 8.11014 4.78056C8.15898 4.8294 8.22521 4.85684 8.29428 4.85684C8.36335 4.85684 8.42959 4.8294 8.47842 4.78056C8.52726 4.73172 8.5547 4.66549 8.5547 4.59642C8.55192 4.10526 8.74406 3.63305 9.08897 3.28336C9.43387 2.93367 9.90339 2.73505 10.3945 2.73105C10.4636 2.73105 10.5298 2.70362 10.5787 2.65478C10.6275 2.60594 10.655 2.5397 10.655 2.47064C10.655 2.40157 10.6275 2.33533 10.5787 2.2865C10.5298 2.23766 10.4636 2.21022 10.3945 2.21022C9.90347 2.20626 9.43401 2.00772 9.08911 1.65814C8.74422 1.30855 8.55203 0.836456 8.5547 0.345378C8.5547 0.276311 8.52726 0.210073 8.47842 0.161235C8.42959 0.112398 8.36335 0.0849609 8.29428 0.0849609C8.22521 0.0849609 8.15898 0.112398 8.11014 0.161235C8.0613 0.210073 8.03386 0.276311 8.03386 0.345378C8.03667 0.836658 7.84446 1.30899 7.4994 1.6587C7.15435 2.00842 6.68464 2.20696 6.19337 2.21074C6.1243 2.21074 6.05807 2.23818 6.00923 2.28702C5.96039 2.33585 5.93295 2.40209 5.93295 2.47116C5.93295 2.54023 5.96039 2.60646 6.00923 2.6553C6.05807 2.70414 6.1243 2.73158 6.19337 2.73158Z" fill="white"/>
<path d="M0.333995 4.42433C0.825167 4.42815 1.29477 4.62663 1.63981 4.97622C1.98484 5.32582 2.17712 5.79799 2.17449 6.28918C2.17449 6.35824 2.20193 6.42448 2.25076 6.47332C2.2996 6.52216 2.36584 6.54959 2.43491 6.54959C2.50397 6.54959 2.57021 6.52216 2.61905 6.47332C2.66789 6.42448 2.69532 6.35824 2.69532 6.28918C2.69255 5.79802 2.88469 5.32581 3.22959 4.97611C3.5745 4.62642 4.04402 4.4278 4.53517 4.42381C4.60423 4.42381 4.67047 4.39637 4.71931 4.34753C4.76815 4.2987 4.79558 4.23246 4.79558 4.16339C4.79558 4.09432 4.76815 4.02809 4.71931 3.97925C4.67047 3.93041 4.60423 3.90297 4.53517 3.90297C4.0441 3.89902 3.57464 3.70048 3.22974 3.35089C2.88484 3.0013 2.69265 2.52921 2.69532 2.03813C2.69532 1.96906 2.66789 1.90282 2.61905 1.85398C2.57021 1.80515 2.50397 1.77771 2.43491 1.77771C2.36584 1.77771 2.2996 1.80515 2.25076 1.85398C2.20193 1.90282 2.17449 1.96906 2.17449 2.03813C2.1773 2.52941 1.98508 3.00174 1.64003 3.35145C1.29497 3.70117 0.825269 3.89971 0.333995 3.90349C0.264928 3.90349 0.19869 3.93093 0.149852 3.97977C0.101015 4.02861 0.0735779 4.09485 0.0735779 4.16391C0.0735779 4.23298 0.101015 4.29922 0.149852 4.34805C0.19869 4.39689 0.264928 4.42433 0.333995 4.42433Z" fill="white"/>
</svg>
